<svg width="87" height="32" viewBox="0 0 87 32" fill="none" xmlns="http://www.w3.org/2000/svg">
<path d="M7.22726 13.6654C8.49104 13.6654 9.50207 13.3515 10.2603 12.7237C11.0344 12.0806 11.5241 11.2998 11.7295 10.3811L12.2034 10.4729C11.9822 11.7285 11.4609 12.8003 10.6395 13.6883C9.83381 14.5764 8.49894 15.0204 6.63486 15.0204C4.51802 15.0204 2.88301 14.3544 1.7298 13.0223C0.576601 11.6749 0 9.79925 0 7.39537C0 5.92548 0.268554 4.63168 0.805662 3.51395C1.35857 2.39622 2.12474 1.53113 3.10417 0.918679C4.0994 0.306226 5.2684 0 6.61117 0C8.58583 0 9.99179 0.543552 10.829 1.63066C11.6663 2.71776 12.0849 4.09578 12.0849 5.76471V6.22405L9.69164 5.97142C9.8812 5.31303 9.97599 4.67761 9.97599 4.06516C9.97599 3.06992 9.68374 2.30435 9.09924 1.76846C8.53054 1.21725 7.75647 0.941647 6.77704 0.941647C5.33948 0.941647 4.17049 1.46989 3.27004 2.52637C2.38539 3.56754 1.94307 5.19054 1.94307 7.39537C1.94307 8.72746 2.15633 9.86815 2.58286 10.8174C3.02518 11.7514 3.64128 12.4634 4.43114 12.9534C5.2368 13.428 6.16884 13.6654 7.22726 13.6654Z" fill="#FEC6FF"/>
<path d="M21.4815 14.8596V14.4233C21.9712 14.4233 22.3345 14.408 22.5715 14.3773C22.8084 14.3314 22.9506 14.2395 22.998 14.1017C23.0454 13.9639 22.9506 13.7572 22.7137 13.4816L16.221 5.53504V3.83549H16.766C16.766 4.60105 17.0187 5.20585 17.5243 5.64988C18.0456 6.09391 18.6775 6.31592 19.4199 6.31592C20.3046 6.31592 20.976 6.0786 21.4341 5.60394C21.908 5.12929 22.145 4.53981 22.145 3.83549C22.145 3.00867 21.908 2.38091 21.4341 1.95219C20.976 1.50817 20.1861 1.28615 19.0645 1.28615H16.529V0.22967H19.6332C21.0392 0.22967 22.1371 0.535896 22.9269 1.14835C23.7168 1.74549 24.1117 2.58761 24.1117 3.67472C24.1117 4.74651 23.7247 5.58863 22.9506 6.20109C22.1766 6.81354 21.1655 7.11977 19.9175 7.11977C19.4278 7.11977 18.9934 7.05086 18.6143 6.91306L18.5669 7.00493C19.1198 7.32647 19.6648 7.71691 20.2019 8.17625C20.7548 8.63559 21.2603 9.12555 21.7184 9.64613L25.9126 14.5151V14.8596H21.4815ZM13.3775 14.8596V14.4233C13.8356 14.4233 14.1989 14.3314 14.4675 14.1477C14.736 13.9639 14.8703 13.6194 14.8703 13.1141V1.95219C14.8703 1.46223 14.736 1.12538 14.4675 0.941647C14.1989 0.742599 13.8356 0.643076 13.3775 0.643076V0.22967H16.766V13.1141C16.766 13.6194 16.9003 13.9639 17.1688 14.1477C17.4374 14.3314 17.8007 14.4233 18.2588 14.4233V14.8596H13.3775Z" fill="#FEC6FF"/>
<path d="M27.0659 1.79142C26.8448 1.3474 26.5288 1.04883 26.1181 0.895712C25.7074 0.727288 25.2572 0.643076 24.7674 0.643076V0.22967H28.2744L32.4212 8.47482H31.4971L35.2647 1.74549C35.4543 1.43926 35.5017 1.20959 35.4069 1.05648C35.3279 0.903368 35.1542 0.796189 34.8856 0.734944C34.617 0.673698 34.2458 0.643076 33.7719 0.643076V0.22967H39.0561V0.643076C38.5506 0.643076 38.0924 0.719632 37.6817 0.872745C37.271 1.02586 36.9392 1.31677 36.6865 1.74549L32.6582 8.84229V13.1141C32.6582 13.6194 32.8004 13.9639 33.0847 14.1477C33.3849 14.3314 33.7956 14.4233 34.3169 14.4233V14.8596H29.0801V14.4233C29.6014 14.4233 30.0121 14.3314 30.3123 14.1477C30.6124 13.9639 30.7625 13.6194 30.7625 13.1141V8.95712L27.0659 1.79142Z" fill="#FEC6FF"/>
<path d="M46.0175 6.79823C47.1865 7.19632 48.0317 7.70925 48.553 8.33702C49.0901 8.94947 49.3586 9.76862 49.3586 10.7945C49.3586 12.2644 48.8768 13.3362 47.9132 14.0099C46.9495 14.6836 45.6542 15.0204 44.027 15.0204C42.7001 15.0204 41.5706 14.7984 40.6385 14.3544C39.7223 13.9103 39.0193 13.3515 38.5296 12.6778V8.15328H38.9087C38.9403 9.33225 39.1773 10.3658 39.6196 11.2538C40.0777 12.1419 40.6938 12.8309 41.4679 13.3209C42.242 13.8108 43.1345 14.0558 44.1455 14.0558C45.2197 14.0558 46.0491 13.8032 46.6336 13.2979C47.2181 12.7926 47.5104 12.1266 47.5104 11.2998C47.5104 10.6414 47.3287 10.0902 46.9653 9.64613C46.6178 9.18679 46.0333 8.81932 45.2118 8.54372L41.8707 7.39537C40.8597 7.04321 40.1172 6.59152 39.6433 6.04032C39.1694 5.48911 38.9324 4.75417 38.9324 3.83549C38.9324 3.14648 39.1141 2.51871 39.4774 1.95219C39.8566 1.37036 40.4332 0.903368 41.2072 0.551207C41.9971 0.183736 42.9607 0 44.0981 0C45.0144 0 45.8674 0.130146 46.6573 0.390438C47.463 0.650731 48.1501 1.03351 48.7188 1.53879L48.9084 5.48911H48.553C48.3318 3.94267 47.85 2.79432 47.1075 2.04406C46.365 1.29381 45.3698 0.918679 44.1218 0.918679C43.0002 0.918679 42.1551 1.156 41.5864 1.63066C41.0177 2.10531 40.7333 2.71776 40.7333 3.46801C40.7333 3.94267 40.8755 4.35607 41.1598 4.70823C41.4442 5.06039 41.9102 5.35131 42.5579 5.58098L46.0175 6.79823Z" fill="#FEC6FF"/>
<path d="M57.2697 13.1141C57.2697 13.6194 57.4119 13.9639 57.6963 14.1477C57.9964 14.3314 58.4071 14.4233 58.9285 14.4233V14.8596H53.7154V14.4233C54.2367 14.4233 54.6395 14.3314 54.9238 14.1477C55.224 13.9639 55.3741 13.6194 55.3741 13.1141V0.22967H57.2697V13.1141ZM50.1373 0C50.3426 0.0918677 50.5717 0.153113 50.8244 0.183735C51.093 0.214358 51.4405 0.22967 51.8671 0.22967H60.7767C61.2033 0.22967 61.5429 0.214358 61.7957 0.183735C62.0642 0.153113 62.3012 0.0918677 62.5065 0L62.6013 0.964613L62.862 3.37615L62.4118 3.42208C62.3486 2.76369 62.1985 2.24311 61.9615 1.86033C61.7404 1.47754 61.3691 1.28615 60.8478 1.28615H51.796C51.2747 1.28615 50.8955 1.47754 50.6586 1.86033C50.4374 2.2278 50.2873 2.74073 50.2084 3.39911L49.7818 3.35318L50.0425 0.964613L50.1373 0Z" fill="#FEC6FF"/>
<path d="M64.9731 13.183C64.831 13.673 64.902 14.0022 65.1864 14.1706C65.4865 14.3391 65.9684 14.4233 66.6319 14.4233V14.8596H61.632V14.4233C62.1217 14.4233 62.5404 14.3391 62.8879 14.1706C63.2512 13.9869 63.504 13.6577 63.6462 13.183L67.0584 1.88329C67.2006 1.40864 67.0979 1.0871 66.7503 0.918679C66.4028 0.734943 65.8499 0.643076 65.0916 0.643076V0.22967H69.9967L73.9065 13.183C74.0487 13.6577 74.2935 13.9869 74.6411 14.1706C75.0044 14.3391 75.423 14.4233 75.897 14.4233V14.8596H70.3284V14.4233C71.0077 14.4233 71.4895 14.3391 71.7739 14.1706C72.074 14.0022 72.153 13.673 72.0108 13.183L68.2195 0.551207H68.7882L64.9731 13.183ZM72.4137 9.37053V10.427H65.2812V9.37053H72.4137Z" fill="#FEC6FF"/>
<path d="M84.7015 13.7802C85.207 13.7802 85.6019 13.5965 85.8863 13.229C86.1864 12.8615 86.4155 12.3639 86.5735 11.7361L87 11.828L86.4076 14.1017L86.1943 14.8596H79.7253V13.7802H84.7015ZM76.5975 14.8596V14.4233C77.0556 14.4233 77.4189 14.3314 77.6875 14.1477C77.956 13.9639 78.0903 13.6194 78.0903 13.1141V1.95219C78.0903 1.46223 77.956 1.12538 77.6875 0.941647C77.4189 0.742599 77.0556 0.643076 76.5975 0.643076V0.22967H81.4788V0.643076C81.0207 0.643076 80.6574 0.742599 80.3888 0.941647C80.1203 1.12538 79.986 1.46223 79.986 1.95219V14.8596H76.5975Z" fill="#FEC6FF"/>
<path d="M0.674419 24.8165C0.674419 26.181 0.950627 27.409 1.50304 28.5007C2.06569 29.5923 2.85339 30.45 3.88662 31.0737C4.91984 31.6878 6.1372 31.9997 7.51825 31.9997C10.6588 32.0289 13.1754 30.1478 13.3186 27.448H11.4363C11.2113 29.1439 9.79952 30.372 7.63077 30.372H7.41595C4.36743 30.411 2.53627 27.9061 2.56696 24.8165C2.53627 21.7268 4.36743 19.2219 7.41595 19.2609H7.63077C9.79952 19.2609 11.2113 20.489 11.4363 22.1946H13.3186C13.1754 19.4948 10.6588 17.5943 7.51825 17.6333C6.1372 17.6333 4.91984 17.9451 3.88662 18.5689C2.85339 19.183 2.06569 20.0407 1.50304 21.1323C0.950627 22.2239 0.674419 23.4519 0.674419 24.8165Z" fill="#FEC6FF"/>
<path d="M25.3961 31.8047H27.3705L21.5394 17.8282H19.1354L13.2634 31.8047H15.1866L16.7109 28.1205H23.8718L25.3961 31.8047ZM17.386 26.4929L20.2913 19.4851L23.1966 26.4929H17.386Z" fill="#FEC6FF"/>
<path d="M27.1413 27.3506C27.2027 30.3622 29.3714 31.9997 32.8701 31.9997C36.072 31.9997 38.1896 30.4597 38.1896 28.0328C38.1896 25.9081 36.8802 24.5923 34.2511 24.0952L31.9085 23.6566C30.5479 23.3935 29.7602 22.7015 29.7602 21.6001C29.7602 20.2746 31.0594 19.2609 32.9314 19.2609H33.1463C35.0081 19.2609 36.4199 20.333 36.5222 21.99H38.4045C38.3022 19.3292 36.2459 17.6333 33.044 17.6333C29.975 17.5943 27.8369 19.4461 27.8779 21.6293C27.8779 23.7346 29.1464 24.9919 31.5095 25.4597L33.8624 25.9178C35.5094 26.2395 36.2971 26.9315 36.2971 28.1108C36.2971 29.3876 35.1411 30.372 33.1258 30.372H32.911C30.6093 30.372 29.0236 29.2901 29.0236 27.3506H27.1413Z" fill="#FEC6FF"/>
<path d="M43.4949 31.8047H45.3772V19.4656H50.6558V17.8282H38.2162V19.4656H43.4949V31.8047Z" fill="#FEC6FF"/>
<path d="M51.8793 31.8047H62.4162V30.1771H53.7617V17.8282H51.8793V31.8047Z" fill="#FEC6FF"/>
<path d="M63.6601 31.8047H74.4118V30.1771H65.5424V25.4305H72.9387V23.8028H65.5424V19.4656H74.197V17.8282H63.6601V31.8047Z" fill="#FEC6FF"/>
<path d="M75.0624 27.3506C75.1238 30.3622 77.2925 31.9997 80.7912 31.9997C83.9932 31.9997 86.1108 30.4597 86.1108 28.0328C86.1108 25.9081 84.8013 24.5923 82.1722 24.0952L79.8296 23.6566C78.469 23.3935 77.6813 22.7015 77.6813 21.6001C77.6813 20.2746 78.9805 19.2609 80.8526 19.2609H81.0674C82.9292 19.2609 84.341 20.333 84.4433 21.99H86.3256C86.2233 19.3292 84.1671 17.6333 80.9651 17.6333C77.8961 17.5943 75.7581 19.4461 75.799 21.6293C75.799 23.7346 77.0675 24.9919 79.4306 25.4597L81.7835 25.9178C83.4305 26.2395 84.2182 26.9315 84.2182 28.1108C84.2182 29.3876 83.0622 30.372 81.0469 30.372H80.8321C78.5304 30.372 76.9447 29.2901 76.9447 27.3506H75.0624Z" fill="#FEC6FF"/>
</svg>
