<svg width="571" height="292" viewBox="0 0 571 292" fill="none" xmlns="http://www.w3.org/2000/svg">
<rect x="42" y="222" width="253" height="70" rx="16" fill="#34333C"/>
<path d="M61.2931 268H71.0275C75.0275 268.047 77.7462 265 77.6994 261.094C77.6994 257.422 75.5431 254.594 70.6681 254.594H64.1681V248.219H76.2462V245.594H61.2931V268ZM64.1681 265.391V257.156H70.5587C73.1056 257.156 74.8244 258.656 74.8244 261.234C74.8244 263.797 73.0744 265.391 70.5275 265.391H64.1681ZM79.8562 260C79.7937 264.828 83.2312 268.391 87.4187 268.312C91.6375 268.391 95.0594 264.828 94.9969 260C95.0594 255.172 91.6375 251.609 87.4187 251.688C83.2312 251.609 79.7937 255.172 79.8562 260ZM87.2781 266.031C84.575 266.031 82.575 263.75 82.575 260C82.575 256.25 84.575 253.969 87.2781 253.969H87.5594C90.2625 253.969 92.2625 256.25 92.2625 260C92.2625 263.75 90.2625 266.031 87.5594 266.031H87.2781ZM96.0444 268H97.1694C100.247 268 101.732 266.75 101.935 264.016C102.076 261.875 102.138 259.312 102.138 256.297V254.234H108.544V268H111.263V252H99.5756V256.219C99.5756 259.453 99.5131 261.906 99.3881 263.578C99.2631 265.078 98.435 265.625 96.7944 265.625H96.0444V268ZM115.529 268H122.404C125.857 268 128.217 265.859 128.217 262.688C128.217 259.516 126.045 257.656 122.498 257.656H118.248V252H115.529V268ZM118.248 265.828V259.844H121.795C124.107 259.844 125.498 260.781 125.498 262.703C125.498 264.828 124.061 265.828 121.795 265.828H118.248ZM131.014 268H152.936V252H150.217V265.766H143.327V252H140.608V265.766H133.733V252H131.014V268ZM156.265 259.969C156.218 265.359 159.624 268.359 163.671 268.312C166.984 268.312 169.656 266.484 170.249 263.312H167.531C167.14 265.078 165.702 266.031 163.874 266.031H163.64C161.406 266.062 159.077 264.141 158.984 260.375H170.281V258.766C170.327 254.672 167.609 251.641 163.609 251.688C159.796 251.641 156.187 254.625 156.265 259.969ZM159.124 258.188C159.624 255.141 161.546 253.969 163.452 253.969H163.734C165.827 253.969 167.468 255.438 167.562 258.188H159.124ZM180.907 268H183.626V260.797H191.813V268H194.532V252H191.813V258.547H183.626V252H180.907V268ZM211.079 268C210.97 267.25 210.923 266.078 210.923 264.484V257.766C210.954 254.469 208.611 251.641 204.533 251.688C200.986 251.688 198.361 253.703 198.173 256.594H200.892C200.986 255.75 201.361 255.109 202.017 254.656C202.689 254.203 203.486 253.969 204.423 253.969H204.642C206.845 253.969 208.189 255.375 208.189 257.766V258.328L203.564 258.672C201.986 258.812 200.642 259.25 199.517 260.016C198.408 260.766 197.845 261.953 197.845 263.578C197.783 266.25 200.158 268.359 203.048 268.312C205.611 268.312 207.704 266.922 208.361 265.438C208.361 266.641 208.408 267.484 208.517 268H211.079ZM208.189 262.234C208.283 264.219 205.642 266.078 203.642 266.031H203.361C201.767 266.031 200.564 264.906 200.564 263.453C200.564 261.938 201.923 260.922 203.986 260.75L208.189 260.438V262.234ZM224.752 252H215.033V268H217.752V254.234H224.752V252ZM227.018 274.406H229.737V265.656C230.174 266.438 230.862 267.078 231.799 267.578C232.737 268.062 233.753 268.312 234.831 268.312C238.862 268.359 242.065 265.094 242.003 260C242.065 254.875 239.081 251.641 235.034 251.688C232.878 251.688 230.581 252.812 229.737 254.344V252H227.018V274.406ZM234.456 266.031C231.799 266.078 229.706 263.625 229.737 260C229.706 256.375 231.799 253.922 234.456 253.969H234.674C237.44 253.969 239.268 256.297 239.268 260C239.268 263.703 237.44 266.031 234.674 266.031H234.456ZM257.628 268C257.519 267.25 257.472 266.078 257.472 264.484V257.766C257.503 254.469 255.159 251.641 251.081 251.688C247.534 251.688 244.909 253.703 244.722 256.594H247.441C247.534 255.75 247.909 255.109 248.566 254.656C249.238 254.203 250.034 253.969 250.972 253.969H251.191C253.394 253.969 254.738 255.375 254.738 257.766V258.328L250.113 258.672C248.534 258.812 247.191 259.25 246.066 260.016C244.956 260.766 244.394 261.953 244.394 263.578C244.331 266.25 246.706 268.359 249.597 268.312C252.159 268.312 254.253 266.922 254.909 265.438C254.909 266.641 254.956 267.484 255.066 268H257.628ZM254.738 262.234C254.831 264.219 252.191 266.078 250.191 266.031H249.909C248.316 266.031 247.113 264.906 247.113 263.453C247.113 261.938 248.472 260.922 250.534 260.75L254.738 260.438V262.234ZM275.16 265.75V252H263.176V255.719C263.176 259.109 263.129 261.781 262.926 263.578C262.738 265.156 262.254 265.75 260.988 265.75H259.629V272.297H262.129V268H275.41V272.297H277.894V265.75H275.16ZM272.441 265.75H264.91C265.223 265.297 265.426 264.578 265.519 263.594C265.691 261.969 265.769 259.359 265.769 255.766V254.234H272.441V265.75Z" fill="#959595"/>
<rect x="113" y="74" width="258" height="70" rx="16" fill="#34333C"/>
<path d="M132.449 120H135.324V110.094H147.121V120H149.996V97.5938H147.121V107.484H135.324V97.5938H132.449V120ZM153.606 112C153.544 116.828 156.981 120.391 161.169 120.312C165.387 120.391 168.809 116.828 168.747 112C168.809 107.172 165.387 103.609 161.169 103.688C156.981 103.609 153.544 107.172 153.606 112ZM161.028 118.031C158.325 118.031 156.325 115.75 156.325 112C156.325 108.25 158.325 105.969 161.028 105.969H161.309C164.012 105.969 166.012 108.25 166.012 112C166.012 115.75 164.012 118.031 161.309 118.031H161.028ZM172.013 120H179.701C182.81 120.047 185.091 118 185.044 115.453C185.044 113.344 183.357 111.969 181.716 111.844C183.576 111.281 184.638 110 184.638 108.062C184.638 105.734 182.826 104 179.544 104H172.013V120ZM174.779 110.781V106.078H178.982C180.872 106.078 181.919 106.859 181.919 108.312C181.919 109.828 180.888 110.781 179.216 110.781H174.779ZM174.779 117.922V112.969H179.263C181.279 112.969 182.31 113.906 182.31 115.297C182.31 116.984 181.294 117.922 179.169 117.922H174.779ZM188.404 120H195.279C198.732 120 201.092 117.859 201.092 114.688C201.092 111.516 198.92 109.656 195.373 109.656H191.123V104H188.404V120ZM203.248 120H205.967V104H203.248V120ZM191.123 117.828V111.844H194.67C196.982 111.844 198.373 112.781 198.373 114.703C198.373 116.828 196.936 117.828 194.67 117.828H191.123ZM209.28 111.969C209.233 117.359 212.639 120.359 216.686 120.312C219.999 120.312 222.671 118.484 223.264 115.312H220.546C220.155 117.078 218.717 118.031 216.889 118.031H216.655C214.421 118.062 212.092 116.141 211.999 112.375H223.296V110.766C223.342 106.672 220.624 103.641 216.624 103.688C212.811 103.641 209.202 106.625 209.28 111.969ZM212.139 110.188C212.639 107.141 214.561 105.969 216.467 105.969H216.749C218.842 105.969 220.483 107.438 220.577 110.188H212.139ZM232.969 112C232.922 116.719 235.812 120.375 240.531 120.312C244.125 120.312 246.578 118.172 246.984 114.766H244.266C244.094 115.719 243.688 116.516 243.047 117.125C242.406 117.734 241.625 118.031 240.672 118.031H240.391C237.312 118.078 235.656 115.266 235.688 112C235.656 108.734 237.312 105.922 240.391 105.969H240.672C241.625 105.969 242.422 106.266 243.062 106.875C243.703 107.484 244.109 108.266 244.266 109.234H246.984C246.672 105.812 244.109 103.688 240.531 103.688C235.812 103.625 232.922 107.281 232.969 112ZM249.204 112C249.141 116.828 252.579 120.391 256.766 120.312C260.985 120.391 264.407 116.828 264.344 112C264.407 107.172 260.985 103.609 256.766 103.688C252.579 103.609 249.141 107.172 249.204 112ZM256.626 118.031C253.922 118.031 251.922 115.75 251.922 112C251.922 108.25 253.922 105.969 256.626 105.969H256.907C259.61 105.969 261.61 108.25 261.61 112C261.61 115.75 259.61 118.031 256.907 118.031H256.626ZM267.142 110.734C267.142 116.703 269.783 120.312 274.72 120.312C279.111 120.391 282.267 116.719 282.204 112.156C282.251 107.578 279.095 104.516 275.158 104.562C272.736 104.562 270.47 105.969 269.408 107.578C269.564 103.344 270.845 101.453 274.408 101.453H278.454C281.189 101.453 282.126 100.562 282.126 98.3281V97.3906H279.564V97.9219C279.564 98.75 279.173 99.0781 278.064 99.0781H274.517C271.939 99.0781 270.079 99.7969 268.954 101.234C268.22 102.156 267.736 103.375 267.501 104.891C267.267 106.391 267.142 108.344 267.142 110.734ZM274.658 118.062C271.798 118.062 269.939 115.547 269.939 111.984C269.939 108.875 272.001 106.688 274.658 106.688H274.861C277.579 106.688 279.454 108.969 279.454 112.219C279.486 115.438 277.673 118.125 274.861 118.062H274.658ZM285.471 120H292.346C295.799 120 298.158 117.859 298.158 114.688C298.158 111.516 295.986 109.656 292.439 109.656H288.189V104H285.471V120ZM300.314 120H303.033V104H300.314V120ZM288.189 117.828V111.844H291.736C294.049 111.844 295.439 112.781 295.439 114.703C295.439 116.828 294.002 117.828 291.736 117.828H288.189ZM318.659 104H305.315V106.234H310.628V120H313.346V106.234H318.659V104ZM331.55 104L323.659 117.188V104H320.941V120H324.675L332.394 106.938V120H335.113V104H331.55ZM339.035 120H341.769V115.516C341.769 114.328 342.144 113.938 343.348 113.938H349.316V120H352.035V104H345.004C341.098 104 339.082 105.969 339.082 108.797C339.082 110.688 340.035 112 341.598 112.562C340.035 112.562 339.035 113.5 339.035 115.078V120ZM344.988 111.719C342.863 111.719 341.801 110.656 341.801 108.984C341.801 107.062 342.957 106.172 345.223 106.172H349.316V111.719H344.988Z" fill="#959595"/>
<rect x="192" y="148" width="358" height="70" rx="16" fill="#34333C"/>
<path d="M211.026 194H213.901V184.094H225.697V194H228.572V171.594H225.697V181.484H213.901V171.594H211.026V194ZM232.182 186C232.12 190.828 235.557 194.391 239.745 194.312C243.964 194.391 247.386 190.828 247.323 186C247.386 181.172 243.964 177.609 239.745 177.688C235.557 177.609 232.12 181.172 232.182 186ZM239.604 192.031C236.901 192.031 234.901 189.75 234.901 186C234.901 182.25 236.901 179.969 239.604 179.969H239.886C242.589 179.969 244.589 182.25 244.589 186C244.589 189.75 242.589 192.031 239.886 192.031H239.604ZM250.589 194H258.277C261.386 194.047 263.667 192 263.621 189.453C263.621 187.344 261.933 185.969 260.292 185.844C262.152 185.281 263.214 184 263.214 182.062C263.214 179.734 261.402 178 258.121 178H250.589V194ZM253.355 184.781V180.078H257.558C259.449 180.078 260.496 180.859 260.496 182.312C260.496 183.828 259.464 184.781 257.792 184.781H253.355ZM253.355 191.922V186.969H257.839C259.855 186.969 260.886 187.906 260.886 189.297C260.886 190.984 259.871 191.922 257.746 191.922H253.355ZM266.981 194H273.856C277.309 194 279.668 191.859 279.668 188.688C279.668 185.516 277.496 183.656 273.949 183.656H269.699V178H266.981V194ZM281.824 194H284.543V178H281.824V194ZM269.699 191.828V185.844H273.246C275.559 185.844 276.949 186.781 276.949 188.703C276.949 190.828 275.512 191.828 273.246 191.828H269.699ZM287.856 185.969C287.809 191.359 291.216 194.359 295.262 194.312C298.575 194.312 301.247 192.484 301.841 189.312H299.122C298.731 191.078 297.294 192.031 295.466 192.031H295.231C292.997 192.062 290.669 190.141 290.575 186.375H301.872V184.766C301.919 180.672 299.2 177.641 295.2 177.688C291.387 177.641 287.778 180.625 287.856 185.969ZM290.716 184.188C291.216 181.141 293.137 179.969 295.044 179.969H295.325C297.419 179.969 299.059 181.438 299.153 184.188H290.716ZM312.498 194H315.217V180.234H323.295V194H326.014V178H312.498V194ZM329.311 186C329.249 190.828 332.686 194.391 336.874 194.312C341.092 194.391 344.514 190.828 344.452 186C344.514 181.172 341.092 177.609 336.874 177.688C332.686 177.609 329.249 181.172 329.311 186ZM336.733 192.031C334.03 192.031 332.03 189.75 332.03 186C332.03 182.25 334.03 179.969 336.733 179.969H337.014C339.717 179.969 341.717 182.25 341.717 186C341.717 189.75 339.717 192.031 337.014 192.031H336.733ZM345.499 194H346.624C349.702 194 351.187 192.75 351.39 190.016C351.531 187.875 351.593 185.312 351.593 182.297V180.234H357.999V194H360.718V178H349.031V182.219C349.031 185.453 348.968 187.906 348.843 189.578C348.718 191.078 347.89 191.625 346.249 191.625H345.499V194ZM364.625 194H367.359V189.516C367.359 188.328 367.734 187.938 368.938 187.938H374.906V194H377.625V178H370.594C366.688 178 364.672 179.969 364.672 182.797C364.672 184.688 365.625 186 367.188 186.562C365.625 186.562 364.625 187.5 364.625 189.078V194ZM370.578 185.719C368.453 185.719 367.391 184.656 367.391 182.984C367.391 181.062 368.547 180.172 370.812 180.172H374.906V185.719H370.578ZM388.189 186C388.142 190.719 391.033 194.375 395.751 194.312C399.345 194.312 401.798 192.172 402.204 188.766H399.486C399.314 189.719 398.908 190.516 398.267 191.125C397.626 191.734 396.845 192.031 395.892 192.031H395.611C392.533 192.078 390.876 189.266 390.908 186C390.876 182.734 392.533 179.922 395.611 179.969H395.892C396.845 179.969 397.642 180.266 398.283 180.875C398.923 181.484 399.329 182.266 399.486 183.234H402.204C401.892 179.812 399.329 177.688 395.751 177.688C391.033 177.625 388.142 181.281 388.189 186ZM405.408 200.406H408.127V191.656C408.564 192.438 409.252 193.078 410.189 193.578C411.127 194.062 412.143 194.312 413.221 194.312C417.252 194.359 420.455 191.094 420.393 186C420.455 180.875 417.471 177.641 413.424 177.688C411.268 177.688 408.971 178.812 408.127 180.344V178H405.408V200.406ZM412.846 192.031C410.189 192.078 408.096 189.625 408.127 186C408.096 182.375 410.189 179.922 412.846 179.969H413.064C415.83 179.969 417.658 182.297 417.658 186C417.658 189.703 415.83 192.031 413.064 192.031H412.846ZM436.018 194C435.909 193.25 435.862 192.078 435.862 190.484V183.766C435.893 180.469 433.549 177.641 429.471 177.688C425.924 177.688 423.299 179.703 423.112 182.594H425.831C425.924 181.75 426.299 181.109 426.956 180.656C427.627 180.203 428.424 179.969 429.362 179.969H429.581C431.784 179.969 433.127 181.375 433.127 183.766V184.328L428.502 184.672C426.924 184.812 425.581 185.25 424.456 186.016C423.346 186.766 422.784 187.953 422.784 189.578C422.721 192.25 425.096 194.359 427.987 194.312C430.549 194.312 432.643 192.922 433.299 191.438C433.299 192.641 433.346 193.484 433.456 194H436.018ZM433.127 188.234C433.221 190.219 430.581 192.078 428.581 192.031H428.299C426.706 192.031 425.502 190.906 425.502 189.453C425.502 187.938 426.862 186.922 428.924 186.75L433.127 186.438V188.234ZM459.659 194H462.862L456.987 184.094L462.425 178H459.456L451.753 186.719V178H449.175V186.688L441.441 178H438.472L443.972 184.156L438.034 194H441.175L445.909 186.062L449.175 189.688V194H451.753V189.656L454.972 186.094L459.659 194ZM463.535 185.969C463.488 191.359 466.894 194.359 470.941 194.312C474.254 194.312 476.926 192.484 477.519 189.312H474.801C474.41 191.078 472.972 192.031 471.144 192.031H470.91C468.676 192.062 466.347 190.141 466.254 186.375H477.551V184.766C477.597 180.672 474.879 177.641 470.879 177.688C467.066 177.641 463.457 180.625 463.535 185.969ZM466.394 184.188C466.894 181.141 468.816 179.969 470.722 179.969H471.004C473.097 179.969 474.738 181.438 474.832 184.188H466.394ZM480.942 194H483.661V186.797H491.848V194H494.567V178H491.848V184.547H483.661V178H480.942V194ZM509.443 178L501.552 191.188V178H498.833V194H502.568L510.286 180.938V194H513.005V178H509.443ZM527.896 178L520.006 191.188V178H517.287V194H521.021L528.74 180.938V194H531.459V178H527.896ZM519.552 171.594C519.568 174.484 521.302 175.812 524.256 175.812C527.209 175.812 528.943 174.469 528.959 171.594H526.584C526.474 173.234 525.709 174.047 524.256 174.047C522.865 174.047 522.068 173.281 521.927 171.594H519.552Z" fill="#959595"/>
<rect x="225" width="258" height="70" rx="16" fill="#34333C"/>
<path d="M244.317 46H247.192V36.0938H258.989V46H261.864V23.5938H258.989V33.4844H247.192V23.5938H244.317V46ZM265.474 38C265.411 42.8281 268.849 46.3906 273.036 46.3125C277.255 46.3906 280.677 42.8281 280.614 38C280.677 33.1719 277.255 29.6094 273.036 29.6875C268.849 29.6094 265.411 33.1719 265.474 38ZM272.896 44.0312C270.192 44.0312 268.192 41.75 268.192 38C268.192 34.25 270.192 31.9688 272.896 31.9688H273.177C275.88 31.9688 277.88 34.25 277.88 38C277.88 41.75 275.88 44.0312 273.177 44.0312H272.896ZM283.881 46H291.568C294.677 46.0469 296.959 44 296.912 41.4531C296.912 39.3438 295.224 37.9688 293.584 37.8438C295.443 37.2812 296.506 36 296.506 34.0625C296.506 31.7344 294.693 30 291.412 30H283.881V46ZM286.646 36.7812V32.0781H290.849C292.74 32.0781 293.787 32.8594 293.787 34.3125C293.787 35.8281 292.756 36.7812 291.084 36.7812H286.646ZM286.646 43.9219V38.9688H291.131C293.146 38.9688 294.177 39.9062 294.177 41.2969C294.177 42.9844 293.162 43.9219 291.037 43.9219H286.646ZM300.272 46H307.147C310.6 46 312.959 43.8594 312.959 40.6875C312.959 37.5156 310.787 35.6562 307.241 35.6562H302.991V30H300.272V46ZM315.116 46H317.834V30H315.116V46ZM302.991 43.8281V37.8438H306.537C308.85 37.8438 310.241 38.7812 310.241 40.7031C310.241 42.8281 308.803 43.8281 306.537 43.8281H302.991ZM321.147 37.9688C321.101 43.3594 324.507 46.3594 328.554 46.3125C331.866 46.3125 334.538 44.4844 335.132 41.3125H332.413C332.022 43.0781 330.585 44.0312 328.757 44.0312H328.522C326.288 44.0625 323.96 42.1406 323.866 38.375H335.163V36.7656C335.21 32.6719 332.491 29.6406 328.491 29.6875C324.679 29.6406 321.069 32.625 321.147 37.9688ZM324.007 36.1875C324.507 33.1406 326.429 31.9688 328.335 31.9688H328.616C330.71 31.9688 332.351 33.4375 332.444 36.1875H324.007ZM345.789 52.4062H348.508V43.6562C348.946 44.4375 349.633 45.0781 350.571 45.5781C351.508 46.0625 352.524 46.3125 353.602 46.3125C357.633 46.3594 360.836 43.0938 360.774 38C360.836 32.875 357.852 29.6406 353.805 29.6875C351.649 29.6875 349.352 30.8125 348.508 32.3438V30H345.789V52.4062ZM353.227 44.0312C350.571 44.0781 348.477 41.625 348.508 38C348.477 34.375 350.571 31.9219 353.227 31.9688H353.446C356.211 31.9688 358.039 34.2969 358.039 38C358.039 41.7031 356.211 44.0312 353.446 44.0312H353.227ZM363.165 37.9688C363.118 43.3594 366.524 46.3594 370.571 46.3125C373.884 46.3125 376.556 44.4844 377.149 41.3125H374.431C374.04 43.0781 372.602 44.0312 370.774 44.0312H370.54C368.306 44.0625 365.977 42.1406 365.884 38.375H377.181V36.7656C377.227 32.6719 374.509 29.6406 370.509 29.6875C366.696 29.6406 363.087 32.625 363.165 37.9688ZM366.024 36.1875C366.524 33.1406 368.446 31.9688 370.352 31.9688H370.634C372.727 31.9688 374.368 33.4375 374.462 36.1875H366.024ZM399.759 46H402.962L397.087 36.0938L402.525 30H399.556L391.853 38.7188V30H389.275V38.6875L381.541 30H378.572L384.072 36.1562L378.134 46H381.275L386.009 38.0625L389.275 41.6875V46H391.853V41.6562L395.072 38.0938L399.759 46ZM415.916 30L408.026 43.1875V30H405.307V46H409.041L416.76 32.9375V46H419.479V30H415.916ZM438.214 30L433.104 43.1406L427.979 30H423.761V46H426.292V32.2969L431.667 46H434.354L439.714 32.2969V46H442.339V30H438.214ZM446.621 46H453.496C456.949 46 459.308 43.8594 459.308 40.6875C459.308 37.5156 457.136 35.6562 453.589 35.6562H449.339V30H446.621V46ZM461.464 46H464.183V30H461.464V46ZM449.339 43.8281V37.8438H452.886C455.199 37.8438 456.589 38.7812 456.589 40.7031C456.589 42.8281 455.152 43.8281 452.886 43.8281H449.339Z" fill="#959595"/>
<rect width="221" height="70" rx="16" fill="#34333C"/>
<path d="M19.45 46H22.325V36.0938H34.1219V46H36.9969V23.5938H34.1219V33.4844H22.325V23.5938H19.45V46ZM40.6069 38C40.5444 42.8281 43.9819 46.3906 48.1694 46.3125C52.3881 46.3906 55.81 42.8281 55.7475 38C55.81 33.1719 52.3881 29.6094 48.1694 29.6875C43.9819 29.6094 40.5444 33.1719 40.6069 38ZM48.0287 44.0312C45.3256 44.0312 43.3256 41.75 43.3256 38C43.3256 34.25 45.3256 31.9688 48.0287 31.9688H48.31C51.0131 31.9688 53.0131 34.25 53.0131 38C53.0131 41.75 51.0131 44.0312 48.31 44.0312H48.0287ZM59.0137 46H66.7012C69.8106 46.0469 72.0919 44 72.045 41.4531C72.045 39.3438 70.3575 37.9688 68.7169 37.8438C70.5762 37.2812 71.6387 36 71.6387 34.0625C71.6387 31.7344 69.8262 30 66.545 30H59.0137V46ZM61.7794 36.7812V32.0781H65.9825C67.8731 32.0781 68.92 32.8594 68.92 34.3125C68.92 35.8281 67.8887 36.7812 66.2169 36.7812H61.7794ZM61.7794 43.9219V38.9688H66.2637C68.2794 38.9688 69.3106 39.9062 69.3106 41.2969C69.3106 42.9844 68.295 43.9219 66.17 43.9219H61.7794ZM75.405 46H82.28C85.7331 46 88.0925 43.8594 88.0925 40.6875C88.0925 37.5156 85.9206 35.6562 82.3737 35.6562H78.1237V30H75.405V46ZM90.2487 46H92.9675V30H90.2487V46ZM78.1237 43.8281V37.8438H81.6706C83.9831 37.8438 85.3737 38.7812 85.3737 40.7031C85.3737 42.8281 83.9362 43.8281 81.6706 43.8281H78.1237ZM96.2806 37.9688C96.2337 43.3594 99.64 46.3594 103.687 46.3125C106.999 46.3125 109.671 44.4844 110.265 41.3125H107.546C107.156 43.0781 105.718 44.0312 103.89 44.0312H103.656C101.421 44.0625 99.0931 42.1406 98.9994 38.375H110.296V36.7656C110.343 32.6719 107.624 29.6406 103.624 29.6875C99.8119 29.6406 96.2025 32.625 96.2806 37.9688ZM99.14 36.1875C99.64 33.1406 101.562 31.9688 103.468 31.9688H103.749C105.843 31.9688 107.484 33.4375 107.577 36.1875H99.14ZM131.876 46H135.173L128.407 36.3281L134.86 30H131.454L123.641 37.9375V30H120.923V46H123.641V40.9844L126.438 38.2344L131.876 46ZM149.064 46C148.954 45.25 148.907 44.0781 148.907 42.4844V35.7656C148.939 32.4688 146.595 29.6406 142.517 29.6875C138.97 29.6875 136.345 31.7031 136.157 34.5938H138.876C138.97 33.75 139.345 33.1094 140.001 32.6562C140.673 32.2031 141.47 31.9688 142.407 31.9688H142.626C144.829 31.9688 146.173 33.375 146.173 35.7656V36.3281L141.548 36.6719C139.97 36.8125 138.626 37.25 137.501 38.0156C136.392 38.7656 135.829 39.9531 135.829 41.5781C135.767 44.25 138.142 46.3594 141.032 46.3125C143.595 46.3125 145.689 44.9219 146.345 43.4375C146.345 44.6406 146.392 45.4844 146.501 46H149.064ZM146.173 40.2344C146.267 42.2188 143.626 44.0781 141.626 44.0312H141.345C139.751 44.0312 138.548 42.9062 138.548 41.4531C138.548 39.9375 139.907 38.9219 141.97 38.75L146.173 38.4375V40.2344ZM153.018 52.4062H155.736V43.6562C156.174 44.4375 156.861 45.0781 157.799 45.5781C158.736 46.0625 159.752 46.3125 160.83 46.3125C164.861 46.3594 168.064 43.0938 168.002 38C168.064 32.875 165.08 29.6406 161.033 29.6875C158.877 29.6875 156.58 30.8125 155.736 32.3438V30H153.018V52.4062ZM160.455 44.0312C157.799 44.0781 155.705 41.625 155.736 38C155.705 34.375 157.799 31.9219 160.455 31.9688H160.674C163.439 31.9688 165.268 34.2969 165.268 38C165.268 41.7031 163.439 44.0312 160.674 44.0312H160.455ZM182.206 30H168.862V32.2344H174.174V46H176.893V32.2344H182.206V30ZM184.488 46H191.363C194.816 46 197.175 43.8594 197.175 40.6875C197.175 37.5156 195.003 35.6562 191.456 35.6562H187.206V30H184.488V46ZM199.331 46H202.05V30H199.331V46ZM187.206 43.8281V37.8438H190.753C193.066 37.8438 194.456 38.7812 194.456 40.7031C194.456 42.8281 193.019 43.8281 190.753 43.8281H187.206Z" fill="#959595"/>
<rect x="299" y="222" width="272" height="70" rx="16" fill="#34333C"/>
<path d="M332.261 245.594L320.839 264.625V245.594H317.964V268H321.855L333.293 248.891V268H336.168V245.594H332.261ZM362.638 252L357.528 265.141L352.403 252H348.184V268H350.716V254.297L356.091 268H358.778L364.138 254.297V268H366.763V252H362.638ZM371.044 268H373.763V260.797H381.951V268H384.669V252H381.951V258.547H373.763V252H371.044V268ZM387.951 260C387.889 264.828 391.326 268.391 395.514 268.312C399.733 268.391 403.154 264.828 403.092 260C403.154 255.172 399.733 251.609 395.514 251.688C391.326 251.609 387.889 255.172 387.951 260ZM395.373 266.031C392.67 266.031 390.67 263.75 390.67 260C390.67 256.25 392.67 253.969 395.373 253.969H395.654C398.358 253.969 400.358 256.25 400.358 260C400.358 263.75 398.358 266.031 395.654 266.031H395.373ZM416.077 252H406.358V268H409.077V254.234H416.077V252ZM416.796 260C416.734 264.828 420.171 268.391 424.359 268.312C428.578 268.391 431.999 264.828 431.937 260C431.999 255.172 428.578 251.609 424.359 251.688C420.171 251.609 416.734 255.172 416.796 260ZM424.218 266.031C421.515 266.031 419.515 263.75 419.515 260C419.515 256.25 421.515 253.969 424.218 253.969H424.499C427.203 253.969 429.203 256.25 429.203 260C429.203 263.75 427.203 266.031 424.499 266.031H424.218ZM434.25 259.969C434.203 265.359 437.609 268.359 441.656 268.312C444.969 268.312 447.641 266.484 448.234 263.312H445.516C445.125 265.078 443.688 266.031 441.859 266.031H441.625C439.391 266.062 437.062 264.141 436.969 260.375H448.266V258.766C448.312 254.672 445.594 251.641 441.594 251.688C437.781 251.641 434.172 254.625 434.25 259.969ZM437.109 258.188C437.609 255.141 439.531 253.969 441.438 253.969H441.719C443.812 253.969 445.453 255.438 445.547 258.188H437.109ZM471.908 265.75V252H459.923V255.719C459.923 259.109 459.876 261.781 459.673 263.578C459.486 265.156 459.001 265.75 457.736 265.75H456.376V272.297H458.876V268H472.158V272.297H474.642V265.75H471.908ZM469.189 265.75H461.658C461.97 265.297 462.173 264.578 462.267 263.594C462.439 261.969 462.517 259.359 462.517 255.766V254.234H469.189V265.75ZM477.221 274.406H479.939V265.656C480.377 266.438 481.064 267.078 482.002 267.578C482.939 268.062 483.955 268.312 485.033 268.312C489.064 268.359 492.268 265.094 492.205 260C492.268 254.875 489.283 251.641 485.236 251.688C483.08 251.688 480.783 252.812 479.939 254.344V252H477.221V274.406ZM484.658 266.031C482.002 266.078 479.908 263.625 479.939 260C479.908 256.375 482.002 253.922 484.658 253.969H484.877C487.643 253.969 489.471 256.297 489.471 260C489.471 263.703 487.643 266.031 484.877 266.031H484.658ZM509.284 252H506.471L501.44 264.188L496.268 252H493.362L500.096 267.641V270.031C500.096 270.984 499.784 271.312 498.831 271.312H494.315V273.703H499.456C501.643 273.703 502.721 272.672 502.721 270.531V267.578L509.284 252ZM521.222 252H511.503V268H514.222V254.234H521.222V252ZM521.941 260C521.879 264.828 525.316 268.391 529.504 268.312C533.723 268.391 537.144 264.828 537.082 260C537.144 255.172 533.723 251.609 529.504 251.688C525.316 251.609 521.879 255.172 521.941 260ZM529.363 266.031C526.66 266.031 524.66 263.75 524.66 260C524.66 256.25 526.66 253.969 529.363 253.969H529.644C532.348 253.969 534.348 256.25 534.348 260C534.348 263.75 532.348 266.031 529.644 266.031H529.363ZM539.395 259.969C539.348 265.359 542.754 268.359 546.801 268.312C550.114 268.312 552.786 266.484 553.379 263.312H550.661C550.27 265.078 548.832 266.031 547.004 266.031H546.77C544.536 266.062 542.207 264.141 542.114 260.375H553.411V258.766C553.457 254.672 550.739 251.641 546.739 251.688C542.926 251.641 539.317 254.625 539.395 259.969ZM542.254 258.188C542.754 255.141 544.676 253.969 546.582 253.969H546.864C548.957 253.969 550.598 255.438 550.692 258.188H542.254Z" fill="#959595"/>
</svg>
