<svg width="343" height="386" viewBox="0 0 343 386" fill="none" xmlns="http://www.w3.org/2000/svg">
<rect x="145" y="325" width="198" height="61" rx="16" fill="#34333C"/>
<path d="M163.595 364H170.896C173.896 364.035 175.935 361.75 175.9 358.82C175.9 356.066 174.282 353.945 170.626 353.945H165.751V349.164H174.81V347.195H163.595V364ZM165.751 362.043V355.867H170.544C172.454 355.867 173.743 356.992 173.743 358.926C173.743 360.848 172.431 362.043 170.521 362.043H165.751ZM177.517 358C177.47 361.621 180.048 364.293 183.189 364.234C186.353 364.293 188.92 361.621 188.873 358C188.92 354.379 186.353 351.707 183.189 351.766C180.048 351.707 177.47 354.379 177.517 358ZM183.084 362.523C181.056 362.523 179.556 360.812 179.556 358C179.556 355.188 181.056 353.477 183.084 353.477H183.295C185.322 353.477 186.822 355.188 186.822 358C186.822 360.812 185.322 362.523 183.295 362.523H183.084ZM189.658 364H190.502C192.811 364 193.924 363.062 194.076 361.012C194.182 359.406 194.229 357.484 194.229 355.223V353.676H199.033V364H201.072V352H192.307V355.164C192.307 357.59 192.26 359.43 192.166 360.684C192.072 361.809 191.451 362.219 190.221 362.219H189.658V364ZM204.272 364H209.428C212.018 364 213.788 362.395 213.788 360.016C213.788 357.637 212.159 356.242 209.499 356.242H206.311V352H204.272V364ZM206.311 362.371V357.883H208.971C210.706 357.883 211.749 358.586 211.749 360.027C211.749 361.621 210.67 362.371 208.971 362.371H206.311ZM215.886 364H232.327V352H230.288V362.324H225.12V352H223.081V362.324H217.925V352H215.886V364ZM234.824 357.977C234.789 362.02 237.343 364.27 240.378 364.234C242.863 364.234 244.867 362.863 245.312 360.484H243.273C242.98 361.809 241.902 362.523 240.531 362.523H240.355C238.679 362.547 236.933 361.105 236.863 358.281H245.335V357.074C245.371 354.004 243.332 351.73 240.332 351.766C237.472 351.73 234.765 353.969 234.824 357.977ZM236.968 356.641C237.343 354.355 238.785 353.477 240.214 353.477H240.425C241.996 353.477 243.226 354.578 243.296 356.641H236.968ZM253.305 364H255.344V358.598H261.485V364H263.524V352H261.485V356.91H255.344V352H253.305V364ZM275.935 364C275.853 363.438 275.817 362.559 275.817 361.363V356.324C275.841 353.852 274.083 351.73 271.024 351.766C268.364 351.766 266.395 353.277 266.255 355.445H268.294C268.364 354.812 268.645 354.332 269.138 353.992C269.642 353.652 270.239 353.477 270.942 353.477H271.106C272.759 353.477 273.767 354.531 273.767 356.324V356.746L270.298 357.004C269.114 357.109 268.106 357.438 267.263 358.012C266.431 358.574 266.009 359.465 266.009 360.684C265.962 362.688 267.743 364.27 269.911 364.234C271.833 364.234 273.403 363.191 273.895 362.078C273.895 362.98 273.931 363.613 274.013 364H275.935ZM273.767 359.676C273.837 361.164 271.856 362.559 270.356 362.523H270.145C268.95 362.523 268.048 361.68 268.048 360.59C268.048 359.453 269.067 358.691 270.614 358.562L273.767 358.328V359.676ZM286.189 352H278.9V364H280.939V353.676H286.189V352ZM287.889 368.805H289.928V362.242C290.256 362.828 290.771 363.309 291.475 363.684C292.178 364.047 292.939 364.234 293.748 364.234C296.771 364.27 299.174 361.82 299.127 358C299.174 354.156 296.935 351.73 293.9 351.766C292.283 351.766 290.56 352.609 289.928 353.758V352H287.889V368.805ZM293.467 362.523C291.475 362.559 289.904 360.719 289.928 358C289.904 355.281 291.475 353.441 293.467 353.477H293.631C295.705 353.477 297.076 355.223 297.076 358C297.076 360.777 295.705 362.523 293.631 362.523H293.467ZM310.846 364C310.764 363.438 310.729 362.559 310.729 361.363V356.324C310.752 353.852 308.995 351.73 305.936 351.766C303.276 351.766 301.307 353.277 301.166 355.445H303.205C303.276 354.812 303.557 354.332 304.049 353.992C304.553 353.652 305.151 353.477 305.854 353.477H306.018C307.67 353.477 308.678 354.531 308.678 356.324V356.746L305.209 357.004C304.026 357.109 303.018 357.438 302.174 358.012C301.342 358.574 300.92 359.465 300.92 360.684C300.873 362.688 302.655 364.27 304.823 364.234C306.745 364.234 308.315 363.191 308.807 362.078C308.807 362.98 308.842 363.613 308.924 364H310.846ZM308.678 359.676C308.748 361.164 306.768 362.559 305.268 362.523H305.057C303.862 362.523 302.959 361.68 302.959 360.59C302.959 359.453 303.979 358.691 305.526 358.562L308.678 358.328V359.676ZM323.995 362.312V352H315.007V354.789C315.007 357.332 314.972 359.336 314.819 360.684C314.679 361.867 314.315 362.312 313.366 362.312H312.347V367.223H314.222V364H324.182V367.223H326.046V362.312H323.995ZM321.956 362.312H316.307C316.542 361.973 316.694 361.434 316.765 360.695C316.893 359.477 316.952 357.52 316.952 354.824V353.676H321.956V362.312Z" fill="#959595"/>
<rect y="130" width="201" height="61" rx="16" fill="#34333C"/>
<path d="M18.337 169H20.4933V161.57H29.3409V169H31.4972V152.195H29.3409V159.613H20.4933V152.195H18.337V169ZM34.2047 163C34.1578 166.621 36.7359 169.293 39.8766 169.234C43.0406 169.293 45.607 166.621 45.5602 163C45.607 159.379 43.0406 156.707 39.8766 156.766C36.7359 156.707 34.1578 159.379 34.2047 163ZM39.7711 167.523C37.7437 167.523 36.2437 165.812 36.2437 163C36.2437 160.188 37.7437 158.477 39.7711 158.477H39.982C42.0094 158.477 43.5094 160.188 43.5094 163C43.5094 165.812 42.0094 167.523 39.982 167.523H39.7711ZM48.0098 169H53.7755C56.1075 169.035 57.8184 167.5 57.7833 165.59C57.7833 164.008 56.5177 162.977 55.2872 162.883C56.6817 162.461 57.4786 161.5 57.4786 160.047C57.4786 158.301 56.1192 157 53.6583 157H48.0098V169ZM50.0841 162.086V158.559H53.2364C54.6544 158.559 55.4395 159.145 55.4395 160.234C55.4395 161.371 54.6661 162.086 53.4122 162.086H50.0841ZM50.0841 167.441V163.727H53.4473C54.9591 163.727 55.7325 164.43 55.7325 165.473C55.7325 166.738 54.9708 167.441 53.377 167.441H50.0841ZM60.3033 169H65.4595C68.0494 169 69.8189 167.395 69.8189 165.016C69.8189 162.637 68.19 161.242 65.5298 161.242H62.3423V157H60.3033V169ZM71.4361 169H73.4752V157H71.4361V169ZM62.3423 167.371V162.883H65.0025C66.7369 162.883 67.7798 163.586 67.7798 165.027C67.7798 166.621 66.7017 167.371 65.0025 167.371H62.3423ZM75.96 162.977C75.9248 167.02 78.4795 169.27 81.5147 169.234C83.9991 169.234 86.003 167.863 86.4483 165.484H84.4092C84.1162 166.809 83.0381 167.523 81.667 167.523H81.4912C79.8155 167.547 78.0694 166.105 77.9991 163.281H86.4717V162.074C86.5069 159.004 84.4678 156.73 81.4678 156.766C78.6084 156.73 75.9014 158.969 75.96 162.977ZM78.1045 161.641C78.4795 159.355 79.9209 158.477 81.3506 158.477H81.5616C83.1319 158.477 84.3623 159.578 84.4327 161.641H78.1045ZM93.7266 163C93.6914 166.539 95.8594 169.281 99.3984 169.234C102.094 169.234 103.934 167.629 104.238 165.074H102.199C102.07 165.789 101.766 166.387 101.285 166.844C100.805 167.301 100.219 167.523 99.5039 167.523H99.293C96.9844 167.559 95.7422 165.449 95.7656 163C95.7422 160.551 96.9844 158.441 99.293 158.477H99.5039C100.219 158.477 100.816 158.699 101.297 159.156C101.777 159.613 102.082 160.199 102.199 160.926H104.238C104.004 158.359 102.082 156.766 99.3984 156.766C95.8594 156.719 93.6914 159.461 93.7266 163ZM105.903 163C105.856 166.621 108.434 169.293 111.575 169.234C114.739 169.293 117.305 166.621 117.258 163C117.305 159.379 114.739 156.707 111.575 156.766C108.434 156.707 105.856 159.379 105.903 163ZM111.469 167.523C109.442 167.523 107.942 165.812 107.942 163C107.942 160.188 109.442 158.477 111.469 158.477H111.68C113.707 158.477 115.207 160.188 115.207 163C115.207 165.812 113.707 167.523 111.68 167.523H111.469ZM119.356 162.051C119.356 166.527 121.337 169.234 125.04 169.234C128.333 169.293 130.7 166.539 130.653 163.117C130.688 159.684 128.321 157.387 125.368 157.422C123.552 157.422 121.853 158.477 121.056 159.684C121.173 156.508 122.134 155.09 124.806 155.09H127.841C129.892 155.09 130.595 154.422 130.595 152.746V152.043H128.673V152.441C128.673 153.062 128.38 153.309 127.548 153.309H124.888C122.954 153.309 121.56 153.848 120.716 154.926C120.165 155.617 119.802 156.531 119.626 157.668C119.45 158.793 119.356 160.258 119.356 162.051ZM124.993 167.547C122.849 167.547 121.454 165.66 121.454 162.988C121.454 160.656 123.001 159.016 124.993 159.016H125.145C127.185 159.016 128.591 160.727 128.591 163.164C128.614 165.578 127.255 167.594 125.145 167.547H124.993ZM133.103 169H138.259C140.849 169 142.619 167.395 142.619 165.016C142.619 162.637 140.99 161.242 138.33 161.242H135.142V157H133.103V169ZM144.236 169H146.275V157H144.236V169ZM135.142 167.371V162.883H137.802C139.537 162.883 140.58 163.586 140.58 165.027C140.58 166.621 139.501 167.371 137.802 167.371H135.142ZM157.994 157H147.986V158.676H151.971V169H154.01V158.676H157.994V157ZM167.663 157L161.745 166.891V157H159.705V169H162.506L168.295 159.203V169H170.334V157H167.663ZM173.276 169H175.327V165.637C175.327 164.746 175.608 164.453 176.511 164.453H180.987V169H183.026V157H177.753C174.823 157 173.311 158.477 173.311 160.598C173.311 162.016 174.026 163 175.198 163.422C174.026 163.422 173.276 164.125 173.276 165.309V169ZM177.741 162.789C176.147 162.789 175.35 161.992 175.35 160.738C175.35 159.297 176.218 158.629 177.917 158.629H180.987V162.789H177.741Z" fill="#959595"/>
<rect x="66" y="195" width="277" height="61" rx="16" fill="#34333C"/>
<path d="M84.5192 234H86.6755V226.57H95.5231V234H97.6794V217.195H95.5231V224.613H86.6755V217.195H84.5192V234ZM100.387 228C100.34 231.621 102.918 234.293 106.059 234.234C109.223 234.293 111.789 231.621 111.742 228C111.789 224.379 109.223 221.707 106.059 221.766C102.918 221.707 100.34 224.379 100.387 228ZM105.953 232.523C103.926 232.523 102.426 230.812 102.426 228C102.426 225.188 103.926 223.477 105.953 223.477H106.164C108.192 223.477 109.692 225.188 109.692 228C109.692 230.812 108.192 232.523 106.164 232.523H105.953ZM114.192 234H119.958C122.29 234.035 124.001 232.5 123.965 230.59C123.965 229.008 122.7 227.977 121.469 227.883C122.864 227.461 123.661 226.5 123.661 225.047C123.661 223.301 122.301 222 119.84 222H114.192V234ZM116.266 227.086V223.559H119.419C120.837 223.559 121.622 224.145 121.622 225.234C121.622 226.371 120.848 227.086 119.594 227.086H116.266ZM116.266 232.441V228.727H119.63C121.141 228.727 121.915 229.43 121.915 230.473C121.915 231.738 121.153 232.441 119.559 232.441H116.266ZM126.485 234H131.642C134.232 234 136.001 232.395 136.001 230.016C136.001 227.637 134.372 226.242 131.712 226.242H128.525V222H126.485V234ZM137.618 234H139.657V222H137.618V234ZM128.525 232.371V227.883H131.185C132.919 227.883 133.962 228.586 133.962 230.027C133.962 231.621 132.884 232.371 131.185 232.371H128.525ZM142.142 227.977C142.107 232.02 144.662 234.27 147.697 234.234C150.181 234.234 152.185 232.863 152.63 230.484H150.591C150.298 231.809 149.22 232.523 147.849 232.523H147.673C145.998 232.547 144.252 231.105 144.181 228.281H152.654V227.074C152.689 224.004 150.65 221.73 147.65 221.766C144.791 221.73 142.084 223.969 142.142 227.977ZM144.287 226.641C144.662 224.355 146.103 223.477 147.533 223.477H147.744C149.314 223.477 150.545 224.578 150.615 226.641H144.287ZM160.624 234H162.663V223.676H168.721V234H170.76V222H160.624V234ZM173.233 228C173.187 231.621 175.765 234.293 178.905 234.234C182.069 234.293 184.636 231.621 184.589 228C184.636 224.379 182.069 221.707 178.905 221.766C175.765 221.707 173.187 224.379 173.233 228ZM178.8 232.523C176.772 232.523 175.272 230.812 175.272 228C175.272 225.188 176.772 223.477 178.8 223.477H179.011C181.038 223.477 182.538 225.188 182.538 228C182.538 230.812 181.038 232.523 179.011 232.523H178.8ZM185.375 234H186.218C188.527 234 189.64 233.062 189.793 231.012C189.898 229.406 189.945 227.484 189.945 225.223V223.676H194.75V234H196.789V222H188.023V225.164C188.023 227.59 187.976 229.43 187.882 230.684C187.789 231.809 187.168 232.219 185.937 232.219H185.375V234ZM199.719 234H201.77V230.637C201.77 229.746 202.051 229.453 202.953 229.453H207.43V234H209.469V222H204.195C201.266 222 199.754 223.477 199.754 225.598C199.754 227.016 200.469 228 201.641 228.422C200.469 228.422 199.719 229.125 199.719 230.309V234ZM204.184 227.789C202.59 227.789 201.793 226.992 201.793 225.738C201.793 224.297 202.66 223.629 204.359 223.629H207.43V227.789H204.184ZM217.392 228C217.356 231.539 219.524 234.281 223.063 234.234C225.759 234.234 227.599 232.629 227.903 230.074H225.864C225.735 230.789 225.431 231.387 224.95 231.844C224.47 232.301 223.884 232.523 223.169 232.523H222.958C220.649 232.559 219.407 230.449 219.431 228C219.407 225.551 220.649 223.441 222.958 223.477H223.169C223.884 223.477 224.481 223.699 224.962 224.156C225.442 224.613 225.747 225.199 225.864 225.926H227.903C227.669 223.359 225.747 221.766 223.063 221.766C219.524 221.719 217.356 224.461 217.392 228ZM230.306 238.805H232.345V232.242C232.673 232.828 233.189 233.309 233.892 233.684C234.595 234.047 235.357 234.234 236.165 234.234C239.189 234.27 241.591 231.82 241.544 228C241.591 224.156 239.353 221.73 236.318 221.766C234.701 221.766 232.978 222.609 232.345 223.758V222H230.306V238.805ZM235.884 232.523C233.892 232.559 232.322 230.719 232.345 228C232.322 225.281 233.892 223.441 235.884 223.477H236.048C238.122 223.477 239.494 225.223 239.494 228C239.494 230.777 238.122 232.523 236.048 232.523H235.884ZM253.264 234C253.182 233.438 253.146 232.559 253.146 231.363V226.324C253.17 223.852 251.412 221.73 248.353 221.766C245.693 221.766 243.725 223.277 243.584 225.445H245.623C245.693 224.812 245.975 224.332 246.467 223.992C246.971 223.652 247.568 223.477 248.271 223.477H248.435C250.088 223.477 251.096 224.531 251.096 226.324V226.746L247.627 227.004C246.443 227.109 245.435 227.438 244.592 228.012C243.76 228.574 243.338 229.465 243.338 230.684C243.291 232.688 245.072 234.27 247.24 234.234C249.162 234.234 250.732 233.191 251.225 232.078C251.225 232.98 251.26 233.613 251.342 234H253.264ZM251.096 229.676C251.166 231.164 249.185 232.559 247.685 232.523H247.475C246.279 232.523 245.377 231.68 245.377 230.59C245.377 229.453 246.396 228.691 247.943 228.562L251.096 228.328V229.676ZM270.995 234H273.397L268.991 226.57L273.069 222H270.842L265.065 228.539V222H263.131V228.516L257.33 222H255.104L259.229 226.617L254.776 234H257.131L260.682 228.047L263.131 230.766V234H265.065V230.742L267.479 228.07L270.995 234ZM273.901 227.977C273.866 232.02 276.421 234.27 279.456 234.234C281.94 234.234 283.944 232.863 284.39 230.484H282.35C282.057 231.809 280.979 232.523 279.608 232.523H279.432C277.757 232.547 276.011 231.105 275.94 228.281H284.413V227.074C284.448 224.004 282.409 221.73 279.409 221.766C276.55 221.73 273.843 223.969 273.901 227.977ZM276.046 226.641C276.421 224.355 277.862 223.477 279.292 223.477H279.503C281.073 223.477 282.304 224.578 282.374 226.641H276.046ZM286.956 234H288.995V228.598H295.136V234H297.175V222H295.136V226.91H288.995V222H286.956V234ZM308.332 222L302.414 231.891V222H300.375V234H303.176L308.965 224.203V234H311.004V222H308.332ZM322.172 222L316.254 231.891V222H314.215V234H317.016L322.805 224.203V234H324.844V222H322.172ZM315.914 217.195C315.926 219.363 317.227 220.359 319.442 220.359C321.657 220.359 322.957 219.352 322.969 217.195H321.188C321.106 218.426 320.532 219.035 319.442 219.035C318.399 219.035 317.801 218.461 317.696 217.195H315.914Z" fill="#959595"/>
<rect x="52" y="65" width="201" height="61" rx="16" fill="#34333C"/>
<path d="M70.2377 104H72.3939V96.5703H81.2416V104H83.3978V87.1953H81.2416V94.6133H72.3939V87.1953H70.2377V104ZM86.1053 98C86.0584 101.621 88.6366 104.293 91.7772 104.234C94.9412 104.293 97.5077 101.621 97.4608 98C97.5077 94.3789 94.9412 91.707 91.7772 91.7656C88.6366 91.707 86.0584 94.3789 86.1053 98ZM91.6717 102.523C89.6444 102.523 88.1444 100.812 88.1444 98C88.1444 95.1875 89.6444 93.4766 91.6717 93.4766H91.8827C93.91 93.4766 95.41 95.1875 95.41 98C95.41 100.812 93.91 102.523 91.8827 102.523H91.6717ZM99.9105 104H105.676C108.008 104.035 109.719 102.5 109.684 100.59C109.684 99.0078 108.418 97.9766 107.188 97.8828C108.582 97.4609 109.379 96.5 109.379 95.0469C109.379 93.3008 108.02 92 105.559 92H99.9105V104ZM101.985 97.0859V93.5586H105.137C106.555 93.5586 107.34 94.1445 107.34 95.2344C107.34 96.3711 106.567 97.0859 105.313 97.0859H101.985ZM101.985 102.441V98.7266H105.348C106.86 98.7266 107.633 99.4297 107.633 100.473C107.633 101.738 106.871 102.441 105.278 102.441H101.985ZM112.204 104H117.36C119.95 104 121.72 102.395 121.72 100.016C121.72 97.6367 120.091 96.2422 117.43 96.2422H114.243V92H112.204V104ZM123.337 104H125.376V92H123.337V104ZM114.243 102.371V97.8828H116.903C118.638 97.8828 119.68 98.5859 119.68 100.027C119.68 101.621 118.602 102.371 116.903 102.371H114.243ZM127.861 97.9766C127.825 102.02 130.38 104.27 133.415 104.234C135.9 104.234 137.904 102.863 138.349 100.484H136.31C136.017 101.809 134.939 102.523 133.568 102.523H133.392C131.716 102.547 129.97 101.105 129.9 98.2812H138.372V97.0742C138.408 94.0039 136.368 91.7305 133.368 91.7656C130.509 91.7305 127.802 93.9688 127.861 97.9766ZM130.005 96.6406C130.38 94.3555 131.822 93.4766 133.251 93.4766H133.462C135.033 93.4766 136.263 94.5781 136.333 96.6406H130.005ZM146.342 108.805H148.381V102.242C148.709 102.828 149.225 103.309 149.928 103.684C150.631 104.047 151.393 104.234 152.201 104.234C155.225 104.27 157.627 101.82 157.58 98C157.627 94.1562 155.389 91.7305 152.354 91.7656C150.737 91.7656 149.014 92.6094 148.381 93.7578V92H146.342V108.805ZM151.92 102.523C149.928 102.559 148.358 100.719 148.381 98C148.358 95.2812 149.928 93.4414 151.92 93.4766H152.084C154.158 93.4766 155.53 95.2227 155.53 98C155.53 100.777 154.158 102.523 152.084 102.523H151.92ZM159.374 97.9766C159.339 102.02 161.893 104.27 164.928 104.234C167.413 104.234 169.417 102.863 169.862 100.484H167.823C167.53 101.809 166.452 102.523 165.081 102.523H164.905C163.229 102.547 161.483 101.105 161.413 98.2812H169.885V97.0742C169.921 94.0039 167.882 91.7305 164.882 91.7656C162.022 91.7305 159.315 93.9688 159.374 97.9766ZM161.518 96.6406C161.893 94.3555 163.335 93.4766 164.764 93.4766H164.975C166.546 93.4766 167.776 94.5781 167.846 96.6406H161.518ZM186.82 104H189.222L184.816 96.5703L188.894 92H186.667L180.89 98.5391V92H178.956V98.5156L173.155 92H170.929L175.054 96.6172L170.601 104H172.956L176.507 98.0469L178.956 100.766V104H180.89V100.742L183.304 98.0703L186.82 104ZM198.937 92L193.019 101.891V92H190.98V104H193.781L199.57 94.2031V104H201.609V92H198.937ZM215.66 92L211.828 101.855L207.985 92H204.82V104H206.719V93.7227L210.75 104H212.766L216.785 93.7227V104H218.754V92H215.66ZM221.965 104H227.122C229.712 104 231.481 102.395 231.481 100.016C231.481 97.6367 229.852 96.2422 227.192 96.2422H224.005V92H221.965V104ZM233.098 104H235.137V92H233.098V104ZM224.005 102.371V97.8828H226.665C228.399 97.8828 229.442 98.5859 229.442 100.027C229.442 101.621 228.364 102.371 226.665 102.371H224.005Z" fill="#959595"/>
<rect width="174" height="61" rx="16" fill="#34333C"/>
<path d="M18.7125 39H20.8688V31.5703H29.7164V39H31.8727V22.1953H29.7164V29.6133H20.8688V22.1953H18.7125V39ZM34.5802 33C34.5333 36.6211 37.1114 39.293 40.252 39.2344C43.4161 39.293 45.9825 36.6211 45.9356 33C45.9825 29.3789 43.4161 26.707 40.252 26.7656C37.1114 26.707 34.5333 29.3789 34.5802 33ZM40.1466 37.5234C38.1192 37.5234 36.6192 35.8125 36.6192 33C36.6192 30.1875 38.1192 28.4766 40.1466 28.4766H40.3575C42.3848 28.4766 43.8848 30.1875 43.8848 33C43.8848 35.8125 42.3848 37.5234 40.3575 37.5234H40.1466ZM48.3853 39H54.1509C56.483 39.0352 58.1939 37.5 58.1588 35.5898C58.1588 34.0078 56.8931 32.9766 55.6627 32.8828C57.0572 32.4609 57.8541 31.5 57.8541 30.0469C57.8541 28.3008 56.4947 27 54.0338 27H48.3853V39ZM50.4595 32.0859V28.5586H53.6119C55.0298 28.5586 55.815 29.1445 55.815 30.2344C55.815 31.3711 55.0416 32.0859 53.7877 32.0859H50.4595ZM50.4595 37.4414V33.7266H53.8228C55.3345 33.7266 56.108 34.4297 56.108 35.4727C56.108 36.7383 55.3463 37.4414 53.7525 37.4414H50.4595ZM60.6788 39H65.835C68.4248 39 70.1944 37.3945 70.1944 35.0156C70.1944 32.6367 68.5655 31.2422 65.9053 31.2422H62.7178V27H60.6788V39ZM71.8116 39H73.8506V27H71.8116V39ZM62.7178 37.3711V32.8828H65.378C67.1123 32.8828 68.1553 33.5859 68.1553 35.0273C68.1553 36.6211 67.0772 37.3711 65.378 37.3711H62.7178ZM76.3355 32.9766C76.3003 37.0195 78.855 39.2695 81.8902 39.2344C84.3745 39.2344 86.3784 37.8633 86.8238 35.4844H84.7847C84.4917 36.8086 83.4136 37.5234 82.0425 37.5234H81.8667C80.1909 37.5469 78.4448 36.1055 78.3745 33.2812H86.8472V32.0742C86.8823 29.0039 84.8433 26.7305 81.8433 26.7656C78.9839 26.7305 76.2769 28.9688 76.3355 32.9766ZM78.48 31.6406C78.855 29.3555 80.2964 28.4766 81.7261 28.4766H81.937C83.5073 28.4766 84.7378 29.5781 84.8081 31.6406H78.48ZM103.032 39H105.504L100.43 31.7461L105.27 27H102.715L96.8559 32.9531V27H94.8169V39H96.8559V35.2383L98.9536 33.1758L103.032 39ZM115.923 39C115.841 38.4375 115.806 37.5586 115.806 36.3633V31.3242C115.829 28.8516 114.071 26.7305 111.013 26.7656C108.353 26.7656 106.384 28.2773 106.243 30.4453H108.282C108.353 29.8125 108.634 29.332 109.126 28.9922C109.63 28.6523 110.228 28.4766 110.931 28.4766H111.095C112.747 28.4766 113.755 29.5312 113.755 31.3242V31.7461L110.286 32.0039C109.103 32.1094 108.095 32.4375 107.251 33.0117C106.419 33.5742 105.997 34.4648 105.997 35.6836C105.95 37.6875 107.731 39.2695 109.899 39.2344C111.821 39.2344 113.392 38.1914 113.884 37.0781C113.884 37.9805 113.919 38.6133 114.001 39H115.923ZM113.755 34.6758C113.825 36.1641 111.845 37.5586 110.345 37.5234H110.134C108.938 37.5234 108.036 36.6797 108.036 35.5898C108.036 34.4531 109.056 33.6914 110.603 33.5625L113.755 33.3281V34.6758ZM118.888 43.8047H120.927V37.2422C121.255 37.8281 121.771 38.3086 122.474 38.6836C123.177 39.0469 123.939 39.2344 124.748 39.2344C127.771 39.2695 130.173 36.8203 130.126 33C130.173 29.1562 127.935 26.7305 124.9 26.7656C123.283 26.7656 121.56 27.6094 120.927 28.7578V27H118.888V43.8047ZM124.466 37.5234C122.474 37.5586 120.904 35.7188 120.927 33C120.904 30.2812 122.474 28.4414 124.466 28.4766H124.63C126.705 28.4766 128.076 30.2227 128.076 33C128.076 35.7773 126.705 37.5234 124.63 37.5234H124.466ZM140.779 27H130.771V28.6758H134.756V39H136.795V28.6758H140.779V27ZM142.491 39H147.647C150.237 39 152.006 37.3945 152.006 35.0156C152.006 32.6367 150.377 31.2422 147.717 31.2422H144.53V27H142.491V39ZM153.623 39H155.662V27H153.623V39ZM144.53 37.3711V32.8828H147.19C148.924 32.8828 149.967 33.5859 149.967 35.0273C149.967 36.6211 148.889 37.3711 147.19 37.3711H144.53Z" fill="#959595"/>
<rect y="260" width="212" height="61" rx="16" fill="#34333C"/>
<path d="M28.9459 282.195L20.3795 296.469V282.195H18.2233V299H21.1413L29.7194 284.668V299H31.8756V282.195H28.9459ZM51.7281 287L47.8961 296.855L44.0523 287H40.8883V299H42.7867V288.723L46.818 299H48.8336L52.8531 288.723V299H54.8219V287H51.7281ZM58.0333 299H60.0723V293.598H66.213V299H68.252V287H66.213V291.91H60.0723V287H58.0333V299ZM70.7134 293C70.6666 296.621 73.2447 299.293 76.3853 299.234C79.5494 299.293 82.1158 296.621 82.0689 293C82.1158 289.379 79.5494 286.707 76.3853 286.766C73.2447 286.707 70.6666 289.379 70.7134 293ZM76.2798 297.523C74.2525 297.523 72.7525 295.812 72.7525 293C72.7525 290.188 74.2525 288.477 76.2798 288.477H76.4908C78.5181 288.477 80.0181 290.188 80.0181 293C80.0181 295.812 78.5181 297.523 76.4908 297.523H76.2798ZM91.8077 287H84.5186V299H86.5577V288.676H91.8077V287ZM92.3472 293C92.3003 296.621 94.8784 299.293 98.0191 299.234C101.183 299.293 103.75 296.621 103.703 293C103.75 289.379 101.183 286.707 98.0191 286.766C94.8784 286.707 92.3003 289.379 92.3472 293ZM97.9136 297.523C95.8863 297.523 94.3863 295.812 94.3863 293C94.3863 290.188 95.8863 288.477 97.9136 288.477H98.1245C100.152 288.477 101.652 290.188 101.652 293C101.652 295.812 100.152 297.523 98.1245 297.523H97.9136ZM105.438 292.977C105.402 297.02 107.957 299.27 110.992 299.234C113.477 299.234 115.48 297.863 115.926 295.484H113.887C113.594 296.809 112.516 297.523 111.145 297.523H110.969C109.293 297.547 107.547 296.105 107.477 293.281H115.949V292.074C115.984 289.004 113.945 286.73 110.945 286.766C108.086 286.73 105.379 288.969 105.438 292.977ZM107.582 291.641C107.957 289.355 109.398 288.477 110.828 288.477H111.039C112.609 288.477 113.84 289.578 113.91 291.641H107.582ZM133.681 297.312V287H124.692V289.789C124.692 292.332 124.657 294.336 124.505 295.684C124.364 296.867 124.001 297.312 123.052 297.312H122.032V302.223H123.907V299H133.868V302.223H135.731V297.312H133.681ZM131.642 297.312H125.993C126.228 296.973 126.38 296.434 126.45 295.695C126.579 294.477 126.638 292.52 126.638 289.824V288.676H131.642V297.312ZM137.665 303.805H139.705V297.242C140.033 297.828 140.548 298.309 141.251 298.684C141.955 299.047 142.716 299.234 143.525 299.234C146.548 299.27 148.951 296.82 148.904 293C148.951 289.156 146.712 286.73 143.677 286.766C142.06 286.766 140.337 287.609 139.705 288.758V287H137.665V303.805ZM143.244 297.523C141.251 297.559 139.681 295.719 139.705 293C139.681 290.281 141.251 288.441 143.244 288.477H143.408C145.482 288.477 146.853 290.223 146.853 293C146.853 295.777 145.482 297.523 143.408 297.523H143.244ZM161.713 287H159.603L155.83 296.141L151.951 287H149.771L154.822 298.73V300.523C154.822 301.238 154.588 301.484 153.873 301.484H150.486V303.277H154.342C155.982 303.277 156.791 302.504 156.791 300.898V298.684L161.713 287ZM170.666 287H163.377V299H165.416V288.676H170.666V287ZM171.206 293C171.159 296.621 173.737 299.293 176.878 299.234C180.042 299.293 182.608 296.621 182.561 293C182.608 289.379 180.042 286.707 176.878 286.766C173.737 286.707 171.159 289.379 171.206 293ZM176.772 297.523C174.745 297.523 173.245 295.812 173.245 293C173.245 290.188 174.745 288.477 176.772 288.477H176.983C179.011 288.477 180.511 290.188 180.511 293C180.511 295.812 179.011 297.523 176.983 297.523H176.772ZM184.296 292.977C184.261 297.02 186.816 299.27 189.851 299.234C192.335 299.234 194.339 297.863 194.785 295.484H192.745C192.452 296.809 191.374 297.523 190.003 297.523H189.827C188.152 297.547 186.406 296.105 186.335 293.281H194.808V292.074C194.843 289.004 192.804 286.73 189.804 286.766C186.945 286.73 184.238 288.969 184.296 292.977ZM186.441 291.641C186.816 289.355 188.257 288.477 189.687 288.477H189.898C191.468 288.477 192.699 289.578 192.769 291.641H186.441Z" fill="#959595"/>
</svg>
