<svg width="505" height="292" viewBox="0 0 505 292" fill="none" xmlns="http://www.w3.org/2000/svg">
<rect x="20" y="222" width="224" height="70" rx="16" fill="#34333C"/>
<path d="M58.0044 245.594L51.02 265.453L43.9419 245.594H39.1294V268H42.0044V248.078L49.1294 268H52.895L59.895 248V268H62.7544V245.594H58.0044ZM66.3487 260C66.2862 264.828 69.7237 268.391 73.9112 268.312C78.13 268.391 81.5519 264.828 81.4894 260C81.5519 255.172 78.13 251.609 73.9112 251.688C69.7237 251.609 66.2862 255.172 66.3487 260ZM73.7706 266.031C71.0675 266.031 69.0675 263.75 69.0675 260C69.0675 256.25 71.0675 253.969 73.7706 253.969H74.0519C76.755 253.969 78.755 256.25 78.755 260C78.755 263.75 76.755 266.031 74.0519 266.031H73.7706ZM84.7556 268H87.4744V260.016C87.4744 256.531 89.2712 254.438 92.2244 254.438H93.5056V251.844H92.0681C90.9587 251.844 89.9744 252.172 89.0994 252.812C88.24 253.453 87.6462 254.375 87.3181 255.562V252H84.7556V268ZM94.3812 259.969C94.3344 265.359 97.7406 268.359 101.787 268.312C105.1 268.312 107.772 266.484 108.366 263.312H105.647C105.256 265.078 103.819 266.031 101.991 266.031H101.756C99.5219 266.062 97.1937 264.141 97.1 260.375H108.397V258.766C108.444 254.672 105.725 251.641 101.725 251.688C97.9125 251.641 94.3031 254.625 94.3812 259.969ZM97.2406 258.188C97.7406 255.141 99.6625 253.969 101.569 253.969H101.85C103.944 253.969 105.584 255.438 105.678 258.188H97.2406ZM119.023 268H121.742V260.016C121.742 256.531 123.539 254.438 126.492 254.438H127.773V251.844H126.336C125.226 251.844 124.242 252.172 123.367 252.812C122.507 253.453 121.914 254.375 121.586 255.562V252H119.023V268ZM128.649 259.969C128.602 265.359 132.008 268.359 136.055 268.312C139.368 268.312 142.039 266.484 142.633 263.312H139.914C139.524 265.078 138.086 266.031 136.258 266.031H136.024C133.789 266.062 131.461 264.141 131.368 260.375H142.664V258.766C142.711 254.672 139.993 251.641 135.993 251.688C132.18 251.641 128.571 254.625 128.649 259.969ZM131.508 258.188C132.008 255.141 133.93 253.969 135.836 253.969H136.118C138.211 253.969 139.852 255.438 139.946 258.188H131.508ZM164.681 252L160.977 265.234L157.274 252H154.259L150.696 265.156L146.868 252H144.024L149.056 268H152.212L155.759 255.062L159.306 268H162.477L167.493 252H164.681ZM181.853 268C181.744 267.25 181.697 266.078 181.697 264.484V257.766C181.728 254.469 179.384 251.641 175.306 251.688C171.759 251.688 169.134 253.703 168.947 256.594H171.666C171.759 255.75 172.134 255.109 172.791 254.656C173.462 254.203 174.259 253.969 175.197 253.969H175.416C177.619 253.969 178.962 255.375 178.962 257.766V258.328L174.337 258.672C172.759 258.812 171.416 259.25 170.291 260.016C169.181 260.766 168.619 261.953 168.619 263.578C168.556 266.25 170.931 268.359 173.822 268.312C176.384 268.312 178.478 266.922 179.134 265.438C179.134 266.641 179.181 267.484 179.291 268H181.853ZM178.962 262.234C179.056 264.219 176.416 266.078 174.416 266.031H174.134C172.541 266.031 171.337 264.906 171.337 263.453C171.337 261.938 172.697 260.922 174.759 260.75L178.962 260.438V262.234ZM185.807 268H188.526V260.016C188.526 256.531 190.323 254.438 193.276 254.438H194.557V251.844H193.119C192.01 251.844 191.026 252.172 190.151 252.812C189.291 253.453 188.698 254.375 188.369 255.562V252H185.807V268ZM195.511 260C195.448 265.125 198.432 268.359 202.479 268.312C204.636 268.312 206.932 267.188 207.776 265.656V268H210.495V245.594H207.776V254.344C207.339 253.562 206.651 252.922 205.714 252.438C204.776 251.938 203.761 251.688 202.682 251.688C198.651 251.641 195.448 254.906 195.511 260ZM202.839 266.031C200.073 266.031 198.245 263.703 198.245 260C198.245 256.297 200.073 253.969 202.839 253.969H203.057C205.714 253.922 207.807 256.375 207.776 260C207.807 263.625 205.714 266.078 203.057 266.031H202.839ZM213.558 263.094C213.621 266.125 215.902 268.312 220.043 268.312C223.683 268.312 226.199 266.438 226.199 263.516C226.199 262.188 225.808 261.172 225.027 260.469C224.261 259.766 223.214 259.266 221.886 259L219.371 258.469C217.621 258.109 216.918 257.484 216.918 256.25C216.918 255.031 218.121 253.969 220.011 253.969H220.293C222.293 253.969 223.449 255.219 223.636 256.906H226.355C226.293 253.953 224.183 251.688 220.136 251.688C216.949 251.656 214.121 253.5 214.183 256.531C214.183 257.797 214.605 258.797 215.433 259.531C216.261 260.25 217.371 260.75 218.761 261.031L221.089 261.5C222.824 261.859 223.48 262.547 223.48 263.688C223.48 264.391 223.183 264.969 222.589 265.391C221.996 265.812 221.23 266.031 220.293 266.031H220.011C217.933 266.031 216.449 265.031 216.277 263.094H213.558Z" fill="#959595"/>
<rect x="91" y="74" width="196" height="70" rx="16" fill="#34333C"/>
<path d="M125.396 97.5938V116.281L114.364 97.5938H110.411V120H113.286V101.188L124.38 120H128.286V97.5938H125.396ZM131.912 111.969C131.865 117.359 135.271 120.359 139.318 120.312C142.631 120.312 145.302 118.484 145.896 115.312H143.177C142.787 117.078 141.349 118.031 139.521 118.031H139.287C137.052 118.062 134.724 116.141 134.631 112.375H145.927V110.766C145.974 106.672 143.256 103.641 139.256 103.688C135.443 103.641 131.834 106.625 131.912 111.969ZM134.771 110.188C135.271 107.141 137.193 105.969 139.099 105.969H139.381C141.474 105.969 143.115 107.438 143.209 110.188H134.771ZM167.944 104L164.241 117.234L160.537 104H157.522L153.959 117.156L150.131 104H147.287L152.319 120H155.475L159.022 107.062L162.569 120H165.741L170.756 104H167.944ZM179.523 111.969C179.476 117.359 182.882 120.359 186.929 120.312C190.242 120.312 192.914 118.484 193.507 115.312H190.789C190.398 117.078 188.961 118.031 187.132 118.031H186.898C184.664 118.062 182.336 116.141 182.242 112.375H193.539V110.766C193.586 106.672 190.867 103.641 186.867 103.688C183.054 103.641 179.445 106.625 179.523 111.969ZM182.382 110.188C182.882 107.141 184.804 105.969 186.711 105.969H186.992C189.086 105.969 190.726 107.438 190.82 110.188H182.382ZM207.227 104L202.383 117.375L197.539 104H194.711L200.696 120H204.024L210.008 104H207.227ZM211.024 111.969C210.978 117.359 214.384 120.359 218.431 120.312C221.743 120.312 224.415 118.484 225.009 115.312H222.29C221.899 117.078 220.462 118.031 218.634 118.031H218.399C216.165 118.062 213.837 116.141 213.743 112.375H225.04V110.766C225.087 106.672 222.368 103.641 218.368 103.688C214.556 103.641 210.946 106.625 211.024 111.969ZM213.884 110.188C214.384 107.141 216.306 105.969 218.212 105.969H218.493C220.587 105.969 222.228 107.438 222.321 110.188H213.884ZM228.431 120H231.15V111.359C231.15 108.219 233.103 105.969 235.744 105.969H235.978C238.306 105.969 239.416 107.391 239.416 110V120H242.134V109.359C242.134 105.859 239.931 103.688 236.431 103.688C233.978 103.688 232.166 104.75 231.15 106.391V104H228.431V120ZM247.744 116.688C247.744 118.875 248.916 120 251.104 120H254.838V117.594H251.744C250.791 117.594 250.463 117.266 250.463 116.312V106.344H254.354V104H250.463V98.8125H247.744V104H244.166V106.344H247.744V116.688ZM256.276 115.094C256.339 118.125 258.62 120.312 262.761 120.312C266.401 120.312 268.917 118.438 268.917 115.516C268.917 114.188 268.526 113.172 267.745 112.469C266.979 111.766 265.932 111.266 264.604 111L262.089 110.469C260.339 110.109 259.636 109.484 259.636 108.25C259.636 107.031 260.839 105.969 262.729 105.969H263.011C265.011 105.969 266.167 107.219 266.354 108.906H269.073C269.011 105.953 266.901 103.688 262.854 103.688C259.667 103.656 256.839 105.5 256.901 108.531C256.901 109.797 257.323 110.797 258.151 111.531C258.979 112.25 260.089 112.75 261.479 113.031L263.807 113.5C265.542 113.859 266.198 114.547 266.198 115.688C266.198 116.391 265.901 116.969 265.307 117.391C264.714 117.812 263.948 118.031 263.011 118.031H262.729C260.651 118.031 259.167 117.031 258.995 115.094H256.276Z" fill="#959595"/>
<rect x="170" y="148" width="260" height="70" rx="16" fill="#34333C"/>
<path d="M204.105 171.594V190.281L193.074 171.594H189.121V194H191.996V175.188L203.089 194H206.996V171.594H204.105ZM210.621 185.969C210.574 191.359 213.981 194.359 218.028 194.312C221.34 194.312 224.012 192.484 224.606 189.312H221.887C221.496 191.078 220.059 192.031 218.231 192.031H217.996C215.762 192.062 213.434 190.141 213.34 186.375H224.637V184.766C224.684 180.672 221.965 177.641 217.965 177.688C214.153 177.641 210.543 180.625 210.621 185.969ZM213.481 184.188C213.981 181.141 215.903 179.969 217.809 179.969H218.09C220.184 179.969 221.824 181.438 221.918 184.188H213.481ZM246.653 178L242.95 191.234L239.247 178H236.231L232.669 191.156L228.841 178H225.997L231.028 194H234.184L237.731 181.062L241.278 194H244.45L249.466 178H246.653ZM261.904 191.656C262.748 193.188 265.045 194.312 267.201 194.312C271.248 194.359 274.233 191.125 274.17 186C274.233 180.906 271.029 177.641 266.998 177.688C265.92 177.688 264.904 177.938 263.967 178.438C263.029 178.922 262.342 179.562 261.904 180.344V171.594H259.186V194H261.904V191.656ZM266.623 192.031C263.967 192.078 261.873 189.625 261.904 186C261.873 182.375 263.967 179.922 266.623 179.969H266.842C269.608 179.969 271.436 182.297 271.436 186C271.436 189.703 269.608 192.031 266.842 192.031H266.623ZM289.796 194C289.686 193.25 289.639 192.078 289.639 190.484V183.766C289.671 180.469 287.327 177.641 283.249 177.688C279.702 177.688 277.077 179.703 276.889 182.594H279.608C279.702 181.75 280.077 181.109 280.733 180.656C281.405 180.203 282.202 179.969 283.139 179.969H283.358C285.561 179.969 286.905 181.375 286.905 183.766V184.328L282.28 184.672C280.702 184.812 279.358 185.25 278.233 186.016C277.124 186.766 276.561 187.953 276.561 189.578C276.499 192.25 278.874 194.359 281.764 194.312C284.327 194.312 286.421 192.922 287.077 191.438C287.077 192.641 287.124 193.484 287.233 194H289.796ZM286.905 188.234C286.999 190.219 284.358 192.078 282.358 192.031H282.077C280.483 192.031 279.28 190.906 279.28 189.453C279.28 187.938 280.639 186.922 282.702 186.75L286.905 186.438V188.234ZM295.171 190.688C295.171 192.875 296.343 194 298.531 194H302.265V191.594H299.171C298.218 191.594 297.89 191.266 297.89 190.312V180.344H301.781V178H297.89V172.812H295.171V178H291.593V180.344H295.171V190.688ZM306.562 190.688C306.562 192.875 307.734 194 309.922 194H313.656V191.594H310.562C309.609 191.594 309.281 191.266 309.281 190.312V180.344H313.172V178H309.281V172.812H306.562V178H302.984V180.344H306.562V190.688ZM316.313 194H319.032V171.594H316.313V194ZM322.345 185.969C322.298 191.359 325.704 194.359 329.751 194.312C333.064 194.312 335.736 192.484 336.329 189.312H333.611C333.22 191.078 331.783 192.031 329.954 192.031H329.72C327.486 192.062 325.158 190.141 325.064 186.375H336.361V184.766C336.408 180.672 333.689 177.641 329.689 177.688C325.876 177.641 322.267 180.625 322.345 185.969ZM325.204 184.188C325.704 181.141 327.626 179.969 329.533 179.969H329.814C331.908 179.969 333.548 181.438 333.642 184.188H325.204ZM341.299 194H344.033V180.344H352.033V194H354.752V178H344.033V175.234C344.033 174.281 344.346 173.953 345.299 173.953H348.877V171.594H344.564C342.361 171.594 341.299 172.625 341.299 174.797V178H337.736V180.344H341.299V194ZM351.861 175.125H354.908V171.859H351.861V175.125ZM358.065 185.969C358.018 191.359 361.424 194.359 365.471 194.312C368.784 194.312 371.456 192.484 372.049 189.312H369.331C368.94 191.078 367.503 192.031 365.674 192.031H365.44C363.206 192.062 360.878 190.141 360.784 186.375H372.081V184.766C372.128 180.672 369.409 177.641 365.409 177.688C361.596 177.641 357.987 180.625 358.065 185.969ZM360.924 184.188C361.424 181.141 363.346 179.969 365.253 179.969H365.534C367.628 179.969 369.268 181.438 369.362 184.188H360.924ZM375.472 194H378.191V171.594H375.472V194ZM381.519 186C381.457 191.125 384.441 194.359 388.488 194.312C390.644 194.312 392.941 193.188 393.785 191.656V194H396.504V171.594H393.785V180.344C393.348 179.562 392.66 178.922 391.723 178.438C390.785 177.938 389.769 177.688 388.691 177.688C384.66 177.641 381.457 180.906 381.519 186ZM388.848 192.031C386.082 192.031 384.254 189.703 384.254 186C384.254 182.297 386.082 179.969 388.848 179.969H389.066C391.723 179.922 393.816 182.375 393.785 186C393.816 189.625 391.723 192.078 389.066 192.031H388.848ZM399.567 189.094C399.629 192.125 401.911 194.312 406.051 194.312C409.692 194.312 412.207 192.438 412.207 189.516C412.207 188.188 411.817 187.172 411.036 186.469C410.27 185.766 409.223 185.266 407.895 185L405.379 184.469C403.629 184.109 402.926 183.484 402.926 182.25C402.926 181.031 404.129 179.969 406.02 179.969H406.301C408.301 179.969 409.457 181.219 409.645 182.906H412.364C412.301 179.953 410.192 177.688 406.145 177.688C402.957 177.656 400.129 179.5 400.192 182.531C400.192 183.797 400.614 184.797 401.442 185.531C402.27 186.25 403.379 186.75 404.77 187.031L407.098 187.5C408.832 187.859 409.489 188.547 409.489 189.688C409.489 190.391 409.192 190.969 408.598 191.391C408.004 191.812 407.239 192.031 406.301 192.031H406.02C403.942 192.031 402.457 191.031 402.286 189.094H399.567Z" fill="#959595"/>
<rect x="185" width="199" height="70" rx="16" fill="#34333C"/>
<path d="M219.279 23.5938V42.2812L208.247 23.5938H204.294V46H207.169V27.1875L218.263 46H222.169V23.5938H219.279ZM225.795 37.9688C225.748 43.3594 229.154 46.3594 233.201 46.3125C236.514 46.3125 239.186 44.4844 239.779 41.3125H237.061C236.67 43.0781 235.232 44.0312 233.404 44.0312H233.17C230.936 44.0625 228.607 42.1406 228.514 38.375H239.811V36.7656C239.857 32.6719 237.139 29.6406 233.139 29.6875C229.326 29.6406 225.717 32.625 225.795 37.9688ZM228.654 36.1875C229.154 33.1406 231.076 31.9688 232.982 31.9688H233.264C235.357 31.9688 236.998 33.4375 237.092 36.1875H228.654ZM261.827 30L258.124 43.2344L254.421 30H251.405L247.842 43.1562L244.014 30H241.171L246.202 46H249.358L252.905 33.0625L256.452 46H259.624L264.639 30H261.827ZM274.359 46H277.078V37.3594C277.047 34.2812 279 31.9219 281.359 31.9688H281.594C283.859 31.9688 284.969 33.3906 284.969 36V46H287.688V37.3594C287.656 34.2812 289.609 31.9219 291.969 31.9688H292.203C294.5 31.9688 295.594 33.3906 295.594 36V46H298.312V35.3594C298.312 31.8594 296.125 29.6875 292.656 29.6875C290.359 29.6875 288.391 30.6719 287.25 32.7812C286.312 30.7188 284.438 29.6875 282.047 29.6875C279.812 29.6875 278.094 30.7344 277.078 32.3438V30H274.359V46ZM301.423 38C301.36 42.8281 304.798 46.3906 308.985 46.3125C313.204 46.3906 316.626 42.8281 316.563 38C316.626 33.1719 313.204 29.6094 308.985 29.6875C304.798 29.6094 301.36 33.1719 301.423 38ZM308.844 44.0312C306.141 44.0312 304.141 41.75 304.141 38C304.141 34.25 306.141 31.9688 308.844 31.9688H309.126C311.829 31.9688 313.829 34.25 313.829 38C313.829 41.75 311.829 44.0312 309.126 44.0312H308.844ZM318.892 38C318.829 43.125 321.814 46.3594 325.861 46.3125C328.017 46.3125 330.314 45.1875 331.158 43.6562V46H333.876V23.5938H331.158V32.3438C330.72 31.5625 330.033 30.9219 329.095 30.4375C328.158 29.9375 327.142 29.6875 326.064 29.6875C322.033 29.6406 318.829 32.9062 318.892 38ZM326.22 44.0312C323.454 44.0312 321.626 41.7031 321.626 38C321.626 34.2969 323.454 31.9688 326.22 31.9688H326.439C329.095 31.9219 331.189 34.375 331.158 38C331.189 41.625 329.095 44.0781 326.439 44.0312H326.22ZM337.205 37.9688C337.158 43.3594 340.564 46.3594 344.611 46.3125C347.924 46.3125 350.596 44.4844 351.189 41.3125H348.471C348.08 43.0781 346.643 44.0312 344.814 44.0312H344.58C342.346 44.0625 340.018 42.1406 339.924 38.375H351.221V36.7656C351.268 32.6719 348.549 29.6406 344.549 29.6875C340.736 29.6406 337.127 32.625 337.205 37.9688ZM340.064 36.1875C340.564 33.1406 342.486 31.9688 344.393 31.9688H344.674C346.768 31.9688 348.408 33.4375 348.502 36.1875H340.064ZM353.393 41.0938C353.456 44.125 355.737 46.3125 359.878 46.3125C363.518 46.3125 366.034 44.4375 366.034 41.5156C366.034 40.1875 365.643 39.1719 364.862 38.4688C364.096 37.7656 363.049 37.2656 361.721 37L359.206 36.4688C357.456 36.1094 356.753 35.4844 356.753 34.25C356.753 33.0312 357.956 31.9688 359.846 31.9688H360.128C362.128 31.9688 363.284 33.2188 363.471 34.9062H366.19C366.128 31.9531 364.018 29.6875 359.971 29.6875C356.784 29.6562 353.956 31.5 354.018 34.5312C354.018 35.7969 354.44 36.7969 355.268 37.5312C356.096 38.25 357.206 38.75 358.596 39.0312L360.924 39.5C362.659 39.8594 363.315 40.5469 363.315 41.6875C363.315 42.3906 363.018 42.9688 362.424 43.3906C361.831 43.8125 361.065 44.0312 360.128 44.0312H359.846C357.768 44.0312 356.284 43.0312 356.112 41.0938H353.393Z" fill="#959595"/>
<rect width="181" height="70" rx="16" fill="#34333C"/>
<path d="M34.0994 23.5938V42.2812L23.0681 23.5938H19.115V46H21.99V27.1875L33.0837 46H36.99V23.5938H34.0994ZM40.6156 37.9688C40.5687 43.3594 43.975 46.3594 48.0219 46.3125C51.3344 46.3125 54.0062 44.4844 54.6 41.3125H51.8812C51.4906 43.0781 50.0531 44.0312 48.225 44.0312H47.9906C45.7562 44.0625 43.4281 42.1406 43.3344 38.375H54.6312V36.7656C54.6781 32.6719 51.9594 29.6406 47.9594 29.6875C44.1469 29.6406 40.5375 32.625 40.6156 37.9688ZM43.475 36.1875C43.975 33.1406 45.8969 31.9688 47.8031 31.9688H48.0844C50.1781 31.9688 51.8187 33.4375 51.9125 36.1875H43.475ZM76.6475 30L72.9444 43.2344L69.2412 30H66.2256L62.6631 43.1562L58.835 30H55.9912L61.0225 46H64.1787L67.7256 33.0625L71.2725 46H74.4444L79.46 30H76.6475ZM89.18 46H91.8988V37.3594C91.8675 34.2812 93.8206 31.9219 96.18 31.9688H96.4144C98.68 31.9688 99.7894 33.3906 99.7894 36V46H102.508V37.3594C102.477 34.2812 104.43 31.9219 106.789 31.9688H107.024C109.321 31.9688 110.414 33.3906 110.414 36V46H113.133V35.3594C113.133 31.8594 110.946 29.6875 107.477 29.6875C105.18 29.6875 103.211 30.6719 102.071 32.7812C101.133 30.7188 99.2581 29.6875 96.8675 29.6875C94.6331 29.6875 92.9144 30.7344 91.8988 32.3438V30H89.18V46ZM129.509 46C129.399 45.25 129.353 44.0781 129.353 42.4844V35.7656C129.384 32.4688 127.04 29.6406 122.962 29.6875C119.415 29.6875 116.79 31.7031 116.603 34.5938H119.321C119.415 33.75 119.79 33.1094 120.446 32.6562C121.118 32.2031 121.915 31.9688 122.853 31.9688H123.071C125.274 31.9688 126.618 33.375 126.618 35.7656V36.3281L121.993 36.6719C120.415 36.8125 119.071 37.25 117.946 38.0156C116.837 38.7656 116.274 39.9531 116.274 41.5781C116.212 44.25 118.587 46.3594 121.478 46.3125C124.04 46.3125 126.134 44.9219 126.79 43.4375C126.79 44.6406 126.837 45.4844 126.946 46H129.509ZM126.618 40.2344C126.712 42.2188 124.071 44.0781 122.071 44.0312H121.79C120.196 44.0312 118.993 42.9062 118.993 41.4531C118.993 39.9375 120.353 38.9219 122.415 38.75L126.618 38.4375V40.2344ZM133.463 52.4062H136.181V43.6562C136.619 44.4375 137.306 45.0781 138.244 45.5781C139.181 46.0625 140.197 46.3125 141.275 46.3125C145.306 46.3594 148.509 43.0938 148.447 38C148.509 32.875 145.525 29.6406 141.478 29.6875C139.322 29.6875 137.025 30.8125 136.181 32.3438V30H133.463V52.4062ZM140.9 44.0312C138.244 44.0781 136.15 41.625 136.181 38C136.15 34.375 138.244 31.9219 140.9 31.9688H141.119C143.884 31.9688 145.713 34.2969 145.713 38C145.713 41.7031 143.884 44.0312 141.119 44.0312H140.9ZM150.573 41.0938C150.635 44.125 152.916 46.3125 157.057 46.3125C160.698 46.3125 163.213 44.4375 163.213 41.5156C163.213 40.1875 162.823 39.1719 162.041 38.4688C161.276 37.7656 160.229 37.2656 158.901 37L156.385 36.4688C154.635 36.1094 153.932 35.4844 153.932 34.25C153.932 33.0312 155.135 31.9688 157.026 31.9688H157.307C159.307 31.9688 160.463 33.2188 160.651 34.9062H163.369C163.307 31.9531 161.198 29.6875 157.151 29.6875C153.963 29.6562 151.135 31.5 151.198 34.5312C151.198 35.7969 151.619 36.7969 152.448 37.5312C153.276 38.25 154.385 38.75 155.776 39.0312L158.104 39.5C159.838 39.8594 160.494 40.5469 160.494 41.6875C160.494 42.3906 160.198 42.9688 159.604 43.3906C159.01 43.8125 158.244 44.0312 157.307 44.0312H157.026C154.948 44.0312 153.463 43.0312 153.291 41.0938H150.573Z" fill="#959595"/>
<rect x="248" y="222" width="257" height="70" rx="16" fill="#34333C"/>
<path d="M282.84 268H285.856L276.949 245.594H273.277L264.309 268H267.246L269.574 262.094H280.512L282.84 268ZM270.606 259.484L275.043 248.25L279.481 259.484H270.606ZM287.95 268H290.669V259.359C290.669 256.219 292.622 253.969 295.262 253.969H295.497C297.825 253.969 298.934 255.391 298.934 258V268H301.653V257.359C301.653 253.859 299.45 251.688 295.95 251.688C293.497 251.688 291.684 252.75 290.669 254.391V252H287.95V268ZM304.841 260C304.779 265.125 307.763 268.359 311.81 268.312C313.966 268.312 316.263 267.188 317.107 265.656V268H319.826V245.594H317.107V254.344C316.669 253.562 315.982 252.922 315.044 252.438C314.107 251.938 313.091 251.688 312.013 251.688C307.982 251.641 304.779 254.906 304.841 260ZM312.169 266.031C309.404 266.031 307.576 263.703 307.576 260C307.576 256.297 309.404 253.969 312.169 253.969H312.388C315.044 253.922 317.138 256.375 317.107 260C317.138 263.625 315.044 266.078 312.388 266.031H312.169ZM331.342 268H334.061V259.359C334.03 256.281 335.983 253.922 338.342 253.969H338.577C340.842 253.969 341.952 255.391 341.952 258V268H344.671V259.359C344.639 256.281 346.592 253.922 348.952 253.969H349.186C351.483 253.969 352.577 255.391 352.577 258V268H355.296V257.359C355.296 253.859 353.108 251.688 349.639 251.688C347.342 251.688 345.374 252.672 344.233 254.781C343.296 252.719 341.421 251.688 339.03 251.688C336.796 251.688 335.077 252.734 334.061 254.344V252H331.342V268ZM359.234 262.562C359.234 265.969 361.187 268.312 364.702 268.312C366.015 268.312 367.124 268 368.015 267.391C368.906 266.766 369.531 265.953 369.89 264.969V268H372.624V252H369.89V260.641C369.937 263.891 367.812 266.078 365.656 266.031H365.39C363.093 266.031 361.952 264.656 361.952 261.922V252H359.234V262.562ZM375.953 260C375.906 264.719 378.797 268.375 383.516 268.312C387.109 268.312 389.562 266.172 389.969 262.766H387.25C387.078 263.719 386.672 264.516 386.031 265.125C385.391 265.734 384.609 266.031 383.656 266.031H383.375C380.297 266.078 378.641 263.266 378.672 260C378.641 256.734 380.297 253.922 383.375 253.969H383.656C384.609 253.969 385.406 254.266 386.047 254.875C386.688 255.484 387.094 256.266 387.25 257.234H389.969C389.656 253.812 387.094 251.688 383.516 251.688C378.797 251.625 375.906 255.281 375.953 260ZM393.172 268H395.891V259.141C395.844 255.984 398.11 253.938 400.454 253.969H400.719C403.047 253.969 404.157 255.391 404.157 257.969V268H406.876V257.328C406.876 253.953 404.797 251.688 401.219 251.688C398.735 251.688 396.954 252.719 395.891 254.406V245.594H393.172V268ZM418.236 268H420.955V259.359C420.924 256.281 422.877 253.922 425.236 253.969H425.471C427.736 253.969 428.846 255.391 428.846 258V268H431.564V259.359C431.533 256.281 433.486 253.922 435.846 253.969H436.08C438.377 253.969 439.471 255.391 439.471 258V268H442.189V257.359C442.189 253.859 440.002 251.688 436.533 251.688C434.236 251.688 432.268 252.672 431.127 254.781C430.189 252.719 428.314 251.688 425.924 251.688C423.689 251.688 421.971 252.734 420.955 254.344V252H418.236V268ZM445.299 260C445.237 264.828 448.674 268.391 452.862 268.312C457.081 268.391 460.503 264.828 460.44 260C460.503 255.172 457.081 251.609 452.862 251.688C448.674 251.609 445.237 255.172 445.299 260ZM452.721 266.031C450.018 266.031 448.018 263.75 448.018 260C448.018 256.25 450.018 253.969 452.721 253.969H453.003C455.706 253.969 457.706 256.25 457.706 260C457.706 263.75 455.706 266.031 453.003 266.031H452.721ZM463.706 268H466.425V260.016C466.425 256.531 468.222 254.438 471.175 254.438H472.456V251.844H471.019C469.909 251.844 468.925 252.172 468.05 252.812C467.191 253.453 466.597 254.375 466.269 255.562V252H463.706V268ZM473.332 259.969C473.285 265.359 476.691 268.359 480.738 268.312C484.051 268.312 486.723 266.484 487.316 263.312H484.598C484.207 265.078 482.769 266.031 480.941 266.031H480.707C478.473 266.062 476.144 264.141 476.051 260.375H487.348V258.766C487.394 254.672 484.676 251.641 480.676 251.688C476.863 251.641 473.254 254.625 473.332 259.969ZM476.191 258.188C476.691 255.141 478.613 253.969 480.519 253.969H480.801C482.894 253.969 484.535 255.438 484.629 258.188H476.191Z" fill="#959595"/>
</svg>
