<svg width="343" height="386" viewBox="0 0 343 386" fill="none" xmlns="http://www.w3.org/2000/svg">
<rect x="167" y="325" width="176" height="61" rx="16" fill="#34333C"/>
<path d="M199.503 347.195L194.265 362.09L188.956 347.195H185.347V364H187.503V349.059L192.847 364H195.671L200.921 349V364H203.066V347.195H199.503ZM205.762 358C205.715 361.621 208.293 364.293 211.433 364.234C214.597 364.293 217.164 361.621 217.117 358C217.164 354.379 214.597 351.707 211.433 351.766C208.293 351.707 205.715 354.379 205.762 358ZM211.328 362.523C209.301 362.523 207.801 360.812 207.801 358C207.801 355.188 209.301 353.477 211.328 353.477H211.539C213.566 353.477 215.066 355.188 215.066 358C215.066 360.812 213.566 362.523 211.539 362.523H211.328ZM219.567 364H221.606V358.012C221.606 355.398 222.953 353.828 225.168 353.828H226.129V351.883H225.051C224.219 351.883 223.481 352.129 222.825 352.609C222.18 353.09 221.735 353.781 221.489 354.672V352H219.567V364ZM226.786 357.977C226.751 362.02 229.305 364.27 232.341 364.234C234.825 364.234 236.829 362.863 237.274 360.484H235.235C234.942 361.809 233.864 362.523 232.493 362.523H232.317C230.641 362.547 228.895 361.105 228.825 358.281H237.298V357.074C237.333 354.004 235.294 351.73 232.294 351.766C229.434 351.73 226.727 353.969 226.786 357.977ZM228.93 356.641C229.305 354.355 230.747 353.477 232.177 353.477H232.388C233.958 353.477 235.188 354.578 235.259 356.641H228.93ZM245.267 364H247.306V358.012C247.306 355.398 248.654 353.828 250.869 353.828H251.83V351.883H250.752C249.92 351.883 249.181 352.129 248.525 352.609C247.881 353.09 247.435 353.781 247.189 354.672V352H245.267V364ZM252.487 357.977C252.451 362.02 255.006 364.27 258.041 364.234C260.526 364.234 262.53 362.863 262.975 360.484H260.936C260.643 361.809 259.565 362.523 258.194 362.523H258.018C256.342 362.547 254.596 361.105 254.526 358.281H262.998V357.074C263.033 354.004 260.994 351.73 257.994 351.766C255.135 351.73 252.428 353.969 252.487 357.977ZM254.631 356.641C255.006 354.355 256.448 353.477 257.877 353.477H258.088C259.658 353.477 260.889 354.578 260.959 356.641H254.631ZM279.51 352L276.733 361.926L273.956 352H271.694L269.022 361.867L266.151 352H264.018L267.792 364H270.159L272.819 354.297L275.479 364H277.858L281.62 352H279.51ZM292.39 364C292.308 363.438 292.273 362.559 292.273 361.363V356.324C292.296 353.852 290.538 351.73 287.48 351.766C284.82 351.766 282.851 353.277 282.71 355.445H284.749C284.82 354.812 285.101 354.332 285.593 353.992C286.097 353.652 286.695 353.477 287.398 353.477H287.562C289.214 353.477 290.222 354.531 290.222 356.324V356.746L286.753 357.004C285.57 357.109 284.562 357.438 283.718 358.012C282.886 358.574 282.464 359.465 282.464 360.684C282.417 362.688 284.198 364.27 286.366 364.234C288.288 364.234 289.859 363.191 290.351 362.078C290.351 362.98 290.386 363.613 290.468 364H292.39ZM290.222 359.676C290.292 361.164 288.312 362.559 286.812 362.523H286.601C285.405 362.523 284.503 361.68 284.503 360.59C284.503 359.453 285.523 358.691 287.07 358.562L290.222 358.328V359.676ZM295.355 364H297.394V358.012C297.394 355.398 298.742 353.828 300.957 353.828H301.918V351.883H300.84C300.007 351.883 299.269 352.129 298.613 352.609C297.968 353.09 297.523 353.781 297.277 354.672V352H295.355V364ZM302.633 358C302.586 361.844 304.824 364.27 307.86 364.234C309.477 364.234 311.199 363.391 311.832 362.242V364H313.871V347.195H311.832V353.758C311.504 353.172 310.988 352.691 310.285 352.328C309.582 351.953 308.82 351.766 308.012 351.766C304.988 351.73 302.586 354.18 302.633 358ZM308.129 362.523C306.055 362.523 304.684 360.777 304.684 358C304.684 355.223 306.055 353.477 308.129 353.477H308.293C310.285 353.441 311.856 355.281 311.832 358C311.856 360.719 310.285 362.559 308.293 362.523H308.129ZM316.169 360.32C316.215 362.594 317.926 364.234 321.032 364.234C323.762 364.234 325.649 362.828 325.649 360.637C325.649 359.641 325.356 358.879 324.77 358.352C324.196 357.824 323.411 357.449 322.415 357.25L320.528 356.852C319.215 356.582 318.688 356.113 318.688 355.188C318.688 354.273 319.59 353.477 321.008 353.477H321.219C322.719 353.477 323.587 354.414 323.727 355.68H325.766C325.719 353.465 324.137 351.766 321.102 351.766C318.712 351.742 316.59 353.125 316.637 355.398C316.637 356.348 316.954 357.098 317.575 357.648C318.196 358.188 319.028 358.562 320.071 358.773L321.817 359.125C323.118 359.395 323.61 359.91 323.61 360.766C323.61 361.293 323.387 361.727 322.942 362.043C322.497 362.359 321.923 362.523 321.219 362.523H321.008C319.45 362.523 318.337 361.773 318.208 360.32H316.169Z" fill="#959595"/>
<rect y="130" width="155" height="61" rx="16" fill="#34333C"/>
<path d="M29.7967 152.195V166.211L21.5233 152.195H18.5584V169H20.7147V154.891L29.035 169H31.9647V152.195H29.7967ZM34.6839 162.977C34.6488 167.02 37.2034 169.27 40.2386 169.234C42.723 169.234 44.7269 167.863 45.1722 165.484H43.1331C42.8402 166.809 41.762 167.523 40.3909 167.523H40.2152C38.5394 167.547 36.7933 166.105 36.723 163.281H45.1956V162.074C45.2308 159.004 43.1917 156.73 40.1917 156.766C37.3323 156.73 34.6253 158.969 34.6839 162.977ZM36.8284 161.641C37.2034 159.355 38.6448 158.477 40.0745 158.477H40.2855C41.8558 158.477 43.0863 159.578 43.1566 161.641H36.8284ZM61.7078 157L58.9305 166.926L56.1531 157H53.8914L51.2195 166.867L48.3484 157H46.2156L49.9891 169H52.3563L55.0164 159.297L57.6766 169H60.0555L63.8172 157H61.7078ZM70.3923 162.977C70.3572 167.02 72.9119 169.27 75.947 169.234C78.4314 169.234 80.4353 167.863 80.8806 165.484H78.8416C78.5486 166.809 77.4705 167.523 76.0994 167.523H75.9236C74.2478 167.547 72.5017 166.105 72.4314 163.281H80.9041V162.074C80.9392 159.004 78.9002 156.73 75.9002 156.766C73.0408 156.73 70.3338 158.969 70.3923 162.977ZM72.5369 161.641C72.9119 159.355 74.3533 158.477 75.783 158.477H75.9939C77.5642 158.477 78.7947 159.578 78.865 161.641H72.5369ZM91.1702 157L87.5373 167.031L83.9045 157H81.7834L86.2717 169H88.7678L93.2561 157H91.1702ZM94.0183 162.977C93.9831 167.02 96.5378 169.27 99.573 169.234C102.057 169.234 104.061 167.863 104.507 165.484H102.467C102.175 166.809 101.096 167.523 99.7253 167.523H99.5495C97.8737 167.547 96.1277 166.105 96.0573 163.281H104.53V162.074C104.565 159.004 102.526 156.73 99.5261 156.766C96.6667 156.73 93.9597 158.969 94.0183 162.977ZM96.1628 161.641C96.5378 159.355 97.9792 158.477 99.4089 158.477H99.6198C101.19 158.477 102.421 159.578 102.491 161.641H96.1628ZM107.073 169H109.113V162.52C109.113 160.164 110.577 158.477 112.558 158.477H112.734C114.48 158.477 115.312 159.543 115.312 161.5V169H117.351V161.02C117.351 158.395 115.698 156.766 113.073 156.766C111.234 156.766 109.874 157.562 109.113 158.793V157H107.073V169ZM121.558 166.516C121.558 168.156 122.437 169 124.078 169H126.879V167.195H124.558C123.843 167.195 123.597 166.949 123.597 166.234V158.758H126.515V157H123.597V153.109H121.558V157H118.875V158.758H121.558V166.516ZM127.957 165.32C128.004 167.594 129.715 169.234 132.82 169.234C135.551 169.234 137.438 167.828 137.438 165.637C137.438 164.641 137.145 163.879 136.559 163.352C135.985 162.824 135.199 162.449 134.203 162.25L132.317 161.852C131.004 161.582 130.477 161.113 130.477 160.188C130.477 159.273 131.379 158.477 132.797 158.477H133.008C134.508 158.477 135.375 159.414 135.516 160.68H137.555C137.508 158.465 135.926 156.766 132.891 156.766C130.5 156.742 128.379 158.125 128.426 160.398C128.426 161.348 128.742 162.098 129.363 162.648C129.985 163.188 130.817 163.562 131.86 163.773L133.606 164.125C134.906 164.395 135.399 164.91 135.399 165.766C135.399 166.293 135.176 166.727 134.731 167.043C134.285 167.359 133.711 167.523 133.008 167.523H132.797C131.238 167.523 130.125 166.773 129.996 165.32H127.957Z" fill="#959595"/>
<rect x="119" y="195" width="203" height="61" rx="16" fill="#34333C"/>
<path d="M148.579 217.195V231.211L140.305 217.195H137.34V234H139.497V219.891L147.817 234H150.747V217.195H148.579ZM153.466 227.977C153.431 232.02 155.985 234.27 159.021 234.234C161.505 234.234 163.509 232.863 163.954 230.484H161.915C161.622 231.809 160.544 232.523 159.173 232.523H158.997C157.321 232.547 155.575 231.105 155.505 228.281H163.978V227.074C164.013 224.004 161.974 221.73 158.974 221.766C156.114 221.73 153.407 223.969 153.466 227.977ZM155.61 226.641C155.985 224.355 157.427 223.477 158.857 223.477H159.068C160.638 223.477 161.868 224.578 161.939 226.641H155.61ZM180.49 222L177.713 231.926L174.935 222H172.673L170.002 231.867L167.13 222H164.998L168.771 234H171.138L173.798 224.297L176.459 234H178.838L182.599 222H180.49ZM191.928 232.242C192.561 233.391 194.284 234.234 195.901 234.234C198.936 234.27 201.174 231.844 201.128 228C201.174 224.18 198.772 221.73 195.749 221.766C194.94 221.766 194.178 221.953 193.475 222.328C192.772 222.691 192.256 223.172 191.928 223.758V217.195H189.889V234H191.928V232.242ZM195.467 232.523C193.475 232.559 191.905 230.719 191.928 228C191.905 225.281 193.475 223.441 195.467 223.477H195.631C197.706 223.477 199.077 225.223 199.077 228C199.077 230.777 197.706 232.523 195.631 232.523H195.467ZM212.847 234C212.765 233.438 212.73 232.559 212.73 231.363V226.324C212.753 223.852 210.995 221.73 207.937 221.766C205.276 221.766 203.308 223.277 203.167 225.445H205.206C205.276 224.812 205.558 224.332 206.05 223.992C206.554 223.652 207.151 223.477 207.855 223.477H208.019C209.671 223.477 210.679 224.531 210.679 226.324V226.746L207.21 227.004C206.026 227.109 205.019 227.438 204.175 228.012C203.343 228.574 202.921 229.465 202.921 230.684C202.874 232.688 204.655 234.27 206.823 234.234C208.745 234.234 210.315 233.191 210.808 232.078C210.808 232.98 210.843 233.613 210.925 234H212.847ZM210.679 229.676C210.749 231.164 208.769 232.559 207.269 232.523H207.058C205.862 232.523 204.96 231.68 204.96 230.59C204.96 229.453 205.98 228.691 207.526 228.562L210.679 228.328V229.676ZM216.878 231.516C216.878 233.156 217.757 234 219.398 234H222.199V232.195H219.878C219.164 232.195 218.918 231.949 218.918 231.234V223.758H221.835V222H218.918V218.109H216.878V222H214.195V223.758H216.878V231.516ZM225.422 231.516C225.422 233.156 226.301 234 227.941 234H230.742V232.195H228.422C227.707 232.195 227.461 231.949 227.461 231.234V223.758H230.379V222H227.461V218.109H225.422V222H222.738V223.758H225.422V231.516ZM232.735 234H234.774V217.195H232.735V234ZM237.259 227.977C237.224 232.02 239.778 234.27 242.813 234.234C245.298 234.234 247.302 232.863 247.747 230.484H245.708C245.415 231.809 244.337 232.523 242.966 232.523H242.79C241.114 232.547 239.368 231.105 239.298 228.281H247.77V227.074C247.806 224.004 245.767 221.73 242.767 221.766C239.907 221.73 237.2 223.969 237.259 227.977ZM239.403 226.641C239.778 224.355 241.22 223.477 242.649 223.477H242.86C244.431 223.477 245.661 224.578 245.731 226.641H239.403ZM251.474 234H253.525V223.758H259.525V234H261.564V222H253.525V219.926C253.525 219.211 253.759 218.965 254.474 218.965H257.158V217.195H253.923C252.271 217.195 251.474 217.969 251.474 219.598V222H248.802V223.758H251.474V234ZM259.396 219.844H261.681V217.395H259.396V219.844ZM264.049 227.977C264.014 232.02 266.568 234.27 269.603 234.234C272.088 234.234 274.092 232.863 274.537 230.484H272.498C272.205 231.809 271.127 232.523 269.756 232.523H269.58C267.904 232.547 266.158 231.105 266.088 228.281H274.56V227.074C274.596 224.004 272.557 221.73 269.557 221.766C266.697 221.73 263.99 223.969 264.049 227.977ZM266.193 226.641C266.568 224.355 268.01 223.477 269.439 223.477H269.65C271.221 223.477 272.451 224.578 272.521 226.641H266.193ZM277.104 234H279.143V217.195H277.104V234ZM281.64 228C281.593 231.844 283.831 234.27 286.866 234.234C288.483 234.234 290.206 233.391 290.839 232.242V234H292.878V217.195H290.839V223.758C290.511 223.172 289.995 222.691 289.292 222.328C288.589 221.953 287.827 221.766 287.018 221.766C283.995 221.73 281.593 224.18 281.64 228ZM287.136 232.523C285.061 232.523 283.69 230.777 283.69 228C283.69 225.223 285.061 223.477 287.136 223.477H287.3C289.292 223.441 290.862 225.281 290.839 228C290.862 230.719 289.292 232.559 287.3 232.523H287.136ZM295.175 230.32C295.222 232.594 296.933 234.234 300.038 234.234C302.769 234.234 304.656 232.828 304.656 230.637C304.656 229.641 304.363 228.879 303.777 228.352C303.202 227.824 302.417 227.449 301.421 227.25L299.535 226.852C298.222 226.582 297.695 226.113 297.695 225.188C297.695 224.273 298.597 223.477 300.015 223.477H300.226C301.726 223.477 302.593 224.414 302.734 225.68H304.773C304.726 223.465 303.144 221.766 300.109 221.766C297.718 221.742 295.597 223.125 295.644 225.398C295.644 226.348 295.96 227.098 296.581 227.648C297.202 228.188 298.035 228.562 299.077 228.773L300.824 229.125C302.124 229.395 302.617 229.91 302.617 230.766C302.617 231.293 302.394 231.727 301.949 232.043C301.503 232.359 300.929 232.523 300.226 232.523H300.015C298.456 232.523 297.343 231.773 297.214 230.32H295.175Z" fill="#959595"/>
<rect x="78" y="65" width="157" height="61" rx="16" fill="#34333C"/>
<path d="M107.584 87.1953V101.211L99.3106 87.1953H96.3458V104H98.502V89.8906L106.822 104H109.752V87.1953H107.584ZM112.471 97.9766C112.436 102.02 114.991 104.27 118.026 104.234C120.51 104.234 122.514 102.863 122.96 100.484H120.92C120.627 101.809 119.549 102.523 118.178 102.523H118.002C116.327 102.547 114.581 101.105 114.51 98.2812H122.983V97.0742C123.018 94.0039 120.979 91.7305 117.979 91.7656C115.12 91.7305 112.413 93.9688 112.471 97.9766ZM114.616 96.6406C114.991 94.3555 116.432 93.4766 117.862 93.4766H118.073C119.643 93.4766 120.874 94.5781 120.944 96.6406H114.616ZM139.495 92L136.718 101.926L133.94 92H131.679L129.007 101.867L126.136 92H124.003L127.776 104H130.144L132.804 94.2969L135.464 104H137.843L141.605 92H139.495ZM148.895 104H150.934V97.5195C150.91 95.2109 152.375 93.4414 154.145 93.4766H154.32C156.02 93.4766 156.852 94.543 156.852 96.5V104H158.891V97.5195C158.867 95.2109 160.332 93.4414 162.102 93.4766H162.277C164 93.4766 164.82 94.543 164.82 96.5V104H166.859V96.0195C166.859 93.3945 165.219 91.7656 162.617 91.7656C160.895 91.7656 159.418 92.5039 158.562 94.0859C157.859 92.5391 156.453 91.7656 154.66 91.7656C152.984 91.7656 151.695 92.5508 150.934 93.7578V92H148.895V104ZM169.192 98C169.145 101.621 171.723 104.293 174.864 104.234C178.028 104.293 180.594 101.621 180.547 98C180.594 94.3789 178.028 91.707 174.864 91.7656C171.723 91.707 169.145 94.3789 169.192 98ZM174.758 102.523C172.731 102.523 171.231 100.812 171.231 98C171.231 95.1875 172.731 93.4766 174.758 93.4766H174.969C176.997 93.4766 178.497 95.1875 178.497 98C178.497 100.812 176.997 102.523 174.969 102.523H174.758ZM182.294 98C182.247 101.844 184.485 104.27 187.52 104.234C189.138 104.234 190.86 103.391 191.493 102.242V104H193.532V87.1953H191.493V93.7578C191.165 93.1719 190.649 92.6914 189.946 92.3281C189.243 91.9531 188.481 91.7656 187.673 91.7656C184.649 91.7305 182.247 94.1797 182.294 98ZM187.79 102.523C185.716 102.523 184.345 100.777 184.345 98C184.345 95.2227 185.716 93.4766 187.79 93.4766H187.954C189.946 93.4414 191.517 95.2812 191.493 98C191.517 100.719 189.946 102.559 187.954 102.523H187.79ZM196.029 97.9766C195.994 102.02 198.548 104.27 201.583 104.234C204.068 104.234 206.072 102.863 206.517 100.484H204.478C204.185 101.809 203.107 102.523 201.736 102.523H201.56C199.884 102.547 198.138 101.105 198.068 98.2812H206.54V97.0742C206.576 94.0039 204.537 91.7305 201.537 91.7656C198.677 91.7305 195.97 93.9688 196.029 97.9766ZM198.173 96.6406C198.548 94.3555 199.99 93.4766 201.419 93.4766H201.63C203.201 93.4766 204.431 94.5781 204.501 96.6406H198.173ZM208.17 100.32C208.217 102.594 209.928 104.234 213.033 104.234C215.764 104.234 217.65 102.828 217.65 100.637C217.65 99.6406 217.357 98.8789 216.771 98.3516C216.197 97.8242 215.412 97.4492 214.416 97.25L212.529 96.8516C211.217 96.582 210.689 96.1133 210.689 95.1875C210.689 94.2734 211.592 93.4766 213.01 93.4766H213.221C214.721 93.4766 215.588 94.4141 215.728 95.6797H217.768C217.721 93.4648 216.139 91.7656 213.103 91.7656C210.713 91.7422 208.592 93.125 208.639 95.3984C208.639 96.3477 208.955 97.0977 209.576 97.6484C210.197 98.1875 211.029 98.5625 212.072 98.7734L213.818 99.125C215.119 99.3945 215.611 99.9102 215.611 100.766C215.611 101.293 215.389 101.727 214.943 102.043C214.498 102.359 213.924 102.523 213.221 102.523H213.01C211.451 102.523 210.338 101.773 210.209 100.32H208.17Z" fill="#959595"/>
<rect width="144" height="61" rx="16" fill="#34333C"/>
<path d="M29.6995 22.1953V36.2109L21.4261 22.1953H18.4613V39H20.6175V24.8906L28.9378 39H31.8675V22.1953H29.6995ZM34.5867 32.9766C34.5516 37.0195 37.1063 39.2695 40.1414 39.2344C42.6258 39.2344 44.6297 37.8633 45.075 35.4844H43.0359C42.743 36.8086 41.6648 37.5234 40.2938 37.5234H40.118C38.4422 37.5469 36.6961 36.1055 36.6258 33.2812H45.0984V32.0742C45.1336 29.0039 43.0945 26.7305 40.0945 26.7656C37.2352 26.7305 34.5281 28.9688 34.5867 32.9766ZM36.7313 31.6406C37.1063 29.3555 38.5477 28.4766 39.9773 28.4766H40.1883C41.7586 28.4766 42.9891 29.5781 43.0594 31.6406H36.7313ZM61.6106 27L58.8333 36.9258L56.0559 27H53.7942L51.1223 36.8672L48.2513 27H46.1184L49.8919 39H52.2591L54.9192 29.2969L57.5794 39H59.9583L63.72 27H61.6106ZM71.01 39H73.0491V32.5195C73.0256 30.2109 74.4905 28.4414 76.26 28.4766H76.4358C78.135 28.4766 78.967 29.543 78.967 31.5V39H81.0061V32.5195C80.9827 30.2109 82.4475 28.4414 84.217 28.4766H84.3928C86.1155 28.4766 86.9358 29.543 86.9358 31.5V39H88.9748V31.0195C88.9748 28.3945 87.3342 26.7656 84.7327 26.7656C83.01 26.7656 81.5334 27.5039 80.678 29.0859C79.9748 27.5391 78.5686 26.7656 76.7756 26.7656C75.0998 26.7656 73.8108 27.5508 73.0491 28.7578V27H71.01V39ZM101.257 39C101.175 38.4375 101.139 37.5586 101.139 36.3633V31.3242C101.163 28.8516 99.405 26.7305 96.3464 26.7656C93.6862 26.7656 91.7175 28.2773 91.5769 30.4453H93.6159C93.6862 29.8125 93.9675 29.332 94.4597 28.9922C94.9636 28.6523 95.5612 28.4766 96.2644 28.4766H96.4284C98.0808 28.4766 99.0886 29.5312 99.0886 31.3242V31.7461L95.6198 32.0039C94.4362 32.1094 93.4284 32.4375 92.5847 33.0117C91.7527 33.5742 91.3308 34.4648 91.3308 35.6836C91.2839 37.6875 93.0652 39.2695 95.2331 39.2344C97.155 39.2344 98.7253 38.1914 99.2175 37.0781C99.2175 37.9805 99.2527 38.6133 99.3347 39H101.257ZM99.0886 34.6758C99.1589 36.1641 97.1784 37.5586 95.6784 37.5234H95.4675C94.2722 37.5234 93.3698 36.6797 93.3698 35.5898C93.3698 34.4531 94.3894 33.6914 95.9362 33.5625L99.0886 33.3281V34.6758ZM104.222 43.8047H106.261V37.2422C106.589 37.8281 107.105 38.3086 107.808 38.6836C108.511 39.0469 109.273 39.2344 110.081 39.2344C113.105 39.2695 115.507 36.8203 115.46 33C115.507 29.1562 113.269 26.7305 110.234 26.7656C108.616 26.7656 106.894 27.6094 106.261 28.7578V27H104.222V43.8047ZM109.8 37.5234C107.808 37.5586 106.238 35.7188 106.261 33C106.238 30.2812 107.808 28.4414 109.8 28.4766H109.964C112.038 28.4766 113.409 30.2227 113.409 33C113.409 35.7773 112.038 37.5234 109.964 37.5234H109.8ZM117.054 35.3203C117.101 37.5938 118.812 39.2344 121.918 39.2344C124.648 39.2344 126.535 37.8281 126.535 35.6367C126.535 34.6406 126.242 33.8789 125.656 33.3516C125.082 32.8242 124.297 32.4492 123.3 32.25L121.414 31.8516C120.101 31.582 119.574 31.1133 119.574 30.1875C119.574 29.2734 120.476 28.4766 121.894 28.4766H122.105C123.605 28.4766 124.472 29.4141 124.613 30.6797H126.652C126.605 28.4648 125.023 26.7656 121.988 26.7656C119.597 26.7422 117.476 28.125 117.523 30.3984C117.523 31.3477 117.84 32.0977 118.461 32.6484C119.082 33.1875 119.914 33.5625 120.957 33.7734L122.703 34.125C124.004 34.3945 124.496 34.9102 124.496 35.7656C124.496 36.293 124.273 36.7266 123.828 37.043C123.382 37.3594 122.808 37.5234 122.105 37.5234H121.894C120.336 37.5234 119.222 36.7734 119.093 35.3203H117.054Z" fill="#959595"/>
<rect y="260" width="201" height="61" rx="16" fill="#34333C"/>
<path d="M30.255 299H32.5167L25.837 282.195H23.0831L16.3566 299H18.5597L20.3058 294.57H28.5089L30.255 299ZM21.0792 292.613L24.4073 284.188L27.7355 292.613H21.0792ZM34.0875 299H36.1266V292.52C36.1266 290.164 37.5914 288.477 39.5719 288.477H39.7477C41.4937 288.477 42.3258 289.543 42.3258 291.5V299H44.3648V291.02C44.3648 288.395 42.7125 286.766 40.0875 286.766C38.2477 286.766 36.8883 287.562 36.1266 288.793V287H34.0875V299ZM46.7559 293C46.7091 296.844 48.9473 299.27 51.9825 299.234C53.5997 299.234 55.3223 298.391 55.9552 297.242V299H57.9942V282.195H55.9552V288.758C55.627 288.172 55.1114 287.691 54.4083 287.328C53.7052 286.953 52.9434 286.766 52.1348 286.766C49.1114 286.73 46.7091 289.18 46.7559 293ZM52.252 297.523C50.1778 297.523 48.8067 295.777 48.8067 293C48.8067 290.223 50.1778 288.477 52.252 288.477H52.4161C54.4083 288.441 55.9786 290.281 55.9552 293C55.9786 295.719 54.4083 297.559 52.4161 297.523H52.252ZM66.6319 299H68.6709V292.52C68.6475 290.211 70.1123 288.441 71.8819 288.477H72.0577C73.7569 288.477 74.5889 289.543 74.5889 291.5V299H76.628V292.52C76.6045 290.211 78.0694 288.441 79.8389 288.477H80.0147C81.7373 288.477 82.5577 289.543 82.5577 291.5V299H84.5967V291.02C84.5967 288.395 82.9561 286.766 80.3545 286.766C78.6319 286.766 77.1553 287.504 76.2998 289.086C75.5967 287.539 74.1905 286.766 72.3975 286.766C70.7217 286.766 69.4327 287.551 68.6709 288.758V287H66.6319V299ZM87.5503 294.922C87.5503 297.477 89.0152 299.234 91.6519 299.234C92.6362 299.234 93.4683 299 94.1362 298.543C94.8042 298.074 95.273 297.465 95.5425 296.727V299H97.5933V287H95.5425V293.48C95.5777 295.918 93.9839 297.559 92.3667 297.523H92.1675C90.4448 297.523 89.5894 296.492 89.5894 294.441V287H87.5503V294.922ZM100.09 293C100.055 296.539 102.223 299.281 105.762 299.234C108.457 299.234 110.297 297.629 110.602 295.074H108.562C108.434 295.789 108.129 296.387 107.648 296.844C107.168 297.301 106.582 297.523 105.867 297.523H105.656C103.348 297.559 102.105 295.449 102.129 293C102.105 290.551 103.348 288.441 105.656 288.477H105.867C106.582 288.477 107.18 288.699 107.66 289.156C108.141 289.613 108.445 290.199 108.562 290.926H110.602C110.367 288.359 108.445 286.766 105.762 286.766C102.223 286.719 100.055 289.461 100.09 293ZM113.004 299H115.043V292.355C115.008 289.988 116.707 288.453 118.465 288.477H118.665C120.411 288.477 121.243 289.543 121.243 291.477V299H123.282V290.996C123.282 288.465 121.723 286.766 119.04 286.766C117.176 286.766 115.84 287.539 115.043 288.805V282.195H113.004V299ZM131.802 299H133.841V292.52C133.818 290.211 135.283 288.441 137.052 288.477H137.228C138.927 288.477 139.759 289.543 139.759 291.5V299H141.798V292.52C141.775 290.211 143.24 288.441 145.009 288.477H145.185C146.908 288.477 147.728 289.543 147.728 291.5V299H149.767V291.02C149.767 288.395 148.126 286.766 145.525 286.766C143.802 286.766 142.326 287.504 141.47 289.086C140.767 287.539 139.361 286.766 137.568 286.766C135.892 286.766 134.603 287.551 133.841 288.758V287H131.802V299ZM152.1 293C152.053 296.621 154.631 299.293 157.771 299.234C160.935 299.293 163.502 296.621 163.455 293C163.502 289.379 160.935 286.707 157.771 286.766C154.631 286.707 152.053 289.379 152.1 293ZM157.666 297.523C155.639 297.523 154.139 295.812 154.139 293C154.139 290.188 155.639 288.477 157.666 288.477H157.877C159.904 288.477 161.404 290.188 161.404 293C161.404 295.812 159.904 297.523 157.877 297.523H157.666ZM165.905 299H167.944V293.012C167.944 290.398 169.291 288.828 171.506 288.828H172.467V286.883H171.389C170.557 286.883 169.819 287.129 169.163 287.609C168.518 288.09 168.073 288.781 167.827 289.672V287H165.905V299ZM173.124 292.977C173.089 297.02 175.643 299.27 178.679 299.234C181.163 299.234 183.167 297.863 183.612 295.484H181.573C181.28 296.809 180.202 297.523 178.831 297.523H178.655C176.979 297.547 175.233 296.105 175.163 293.281H183.636V292.074C183.671 289.004 181.632 286.73 178.632 286.766C175.772 286.73 173.065 288.969 173.124 292.977ZM175.268 291.641C175.643 289.355 177.085 288.477 178.515 288.477H178.725C180.296 288.477 181.526 289.578 181.597 291.641H175.268Z" fill="#959595"/>
</svg>
