<svg width="1919" height="610" fill="none" xmlns="http://www.w3.org/2000/svg"><path fill="#000" fill-opacity=".65" d="m155.969 87.8054 1748.14221968 468.41329602-1.35184293 5.0451465L154.61715707 92.8505465z"/><g filter="url(#a)"><path d="M27.4534 52.8287c1.7701-6.606 2.6551-9.909 4.7922-11.937 1.1958-1.1348 2.6432-1.9704 4.2238-2.4386 2.8248-.8368 6.1278.0483 12.7338 1.8183L872.066 260.757c11.146 2.986 17.76 14.442 14.773 25.588-2.986 11.145-14.442 17.76-25.587 14.773L38.3885 80.6326c-6.606-1.7701-9.909-2.6551-11.937-4.7922-1.1348-1.1958-1.9704-2.6431-2.4386-4.2238-.8368-2.8248.0482-6.1278 1.8183-12.7338l1.6222-6.0541Z" fill="#FFC400"/><path d="M48.8652 41.5327 871.728 262.018c10.449 2.8 16.65 13.54 13.85 23.989-2.8 10.449-13.54 16.65-23.989 13.85L38.7264 79.3713c-3.3274-.8916-5.734-1.5378-7.5673-2.2208-1.8151-.6761-2.9399-1.3443-3.7604-2.2089-.993-1.0463-1.7242-2.3128-2.1338-3.6958-.3386-1.143-.3548-2.4512-.0328-4.3611.3252-1.9292.9688-4.3365 1.8604-7.6639l1.6222-6.0542c.8916-3.3274 1.5379-5.734 2.2208-7.5673.6761-1.815 1.3443-2.9399 2.2089-3.7604 1.0463-.9929 2.3128-1.7241 3.6959-2.1338 1.1429-.3386 2.4511-.3547 4.361-.0328 1.9292.3252 4.3365.9688 7.6639 1.8604Z" stroke="#000" stroke-width="2.61156"/></g><g filter="url(#b)" transform="rotate(15 374.081 151.655)"><circle cx="374.081" cy="151.655" r="31.3387" fill="#FFC400"/><circle cx="374.081" cy="151.655" r="30.0329" stroke="#000" stroke-width="2.61156"/></g><path d="m356.197 155.342 4.783 1.282 3.496-13.047-.606-.162-4.954 1.657 1.16-4.328 4.962-1.688 4.965 1.33-4.664 17.406 4.359 1.168-1.014 3.784-13.501-3.618 1.014-3.784Zm18.579-6.831c.358-1.094.842-2.013 1.453-2.758.61-.745 1.324-1.311 2.141-1.697.843-.402 1.767-.619 2.771-.653 1.009-.054 2.079.071 3.209.373 1.07.287 2.008.701 2.815 1.241.827.546 1.485 1.198 1.974 1.957.514.743.84 1.587.976 2.532.136.945.058 1.962-.234 3.052-.368 1.373-1.074 2.557-2.12 3.553-1.045.996-2.262 1.783-3.65 2.363l-5.345 2.267-.162.605 8.96 2.401-1.014 3.784-15.65-4.193 1.168-4.359 8.687-3.48c.505-.189 1.008-.412 1.509-.667.501-.255.967-.541 1.398-.858.436-.337.805-.704 1.105-1.099.326-.41.56-.877.7-1.402.276-1.029.186-1.864-.269-2.506-.43-.655-1.099-1.105-2.007-1.348-.888-.238-1.697-.206-2.427.096-.709.307-1.252.962-1.629 1.964l-4.359-1.168Z" fill="#000"/><g filter="url(#c)" transform="rotate(15 717.151 243.58)"><circle cx="717.151" cy="243.58" r="31.3387" fill="#FFC400"/><circle cx="717.151" cy="243.58" r="30.0329" stroke="#000" stroke-width="2.61156"/></g><path d="m699.326 247.283 4.783 1.282 3.496-13.047-.606-.162-4.954 1.657 1.16-4.328 4.962-1.688 4.965 1.33-4.664 17.406 4.359 1.168-1.014 3.784-13.501-3.618 1.014-3.784Zm34.699-9.357-1.143 4.268-4.995 2.295-.163.606c.69.249 1.308.609 1.852 1.08.57.455 1.02.998 1.349 1.627.349.634.567 1.352.655 2.154.088.802.005 1.678-.249 2.626-.297 1.11-.77 2.065-1.417 2.865-.641.78-1.399 1.388-2.273 1.824-.874.437-1.861.691-2.962.764-1.076.058-2.198-.07-3.369-.384-1.191-.319-2.234-.782-3.131-1.39-.872-.623-1.579-1.332-2.123-2.126-.524-.79-.877-1.652-1.059-2.588-.177-.955-.145-1.92.094-2.894l4.359 1.168c-.138 1.001.058 1.843.589 2.526.53.683 1.3 1.159 2.309 1.43 1.151.308 2.14.249 2.968-.178.834-.448 1.388-1.186 1.664-2.215.281-1.049.183-1.973-.295-2.772-.453-.813-1.285-1.382-2.496-1.707-.787-.211-1.451-.313-1.994-.307l.917-3.421 4.987-2.265.162-.605-8.839-2.369.981-3.662 13.622 3.65Z" fill="#000"/><circle cx="1060.22" cy="335.506" r="30.0329" transform="rotate(15 1060.22 335.506)" fill="#000" fill-opacity=".65" stroke="#000" stroke-width="2.61156"/><path d="m1042.42 339.215 4.78 1.282 3.5-13.047-.61-.162-4.95 1.657 1.16-4.328 4.96-1.688 4.97 1.33-4.67 17.406 4.36 1.168-1.01 3.784-13.5-3.618 1.01-3.784Zm33.43 4.092-1.01 3.784-2.64-.706-1.21 4.541-4.21-1.128 1.22-4.541-10.08-2.701 1.19-4.449 12.65-9.685 4.91 1.314-3.45 12.865 2.63.706Zm-6.69-1.793 2.14-7.961-.61-.162-7.51 5.871-.16.606 6.14 1.646Z" fill="#fff"/><circle cx="1403.29" cy="427.431" r="30.0329" transform="rotate(15 1403.29 427.431)" fill="#000" fill-opacity=".65" stroke="#000" stroke-width="2.61156"/><path d="m1385.16 431.051 4.78 1.281 3.49-13.046-.6-.163-4.96 1.658 1.16-4.329 4.97-1.688 4.96 1.331-4.66 17.405 4.36 1.168-1.02 3.784-13.5-3.617 1.02-3.784Zm27.65-4.011c.97.26 1.82.672 2.56 1.237.75.57 1.35 1.249 1.79 2.037.45.793.73 1.679.84 2.659.13.965.05 1.983-.23 3.052-.31 1.151-.79 2.146-1.45 2.986-.64.846-1.4 1.507-2.29 1.984-.86.482-1.83.785-2.9.909-1.05.109-2.13.012-3.26-.291-1.26-.335-2.32-.804-3.2-1.406-.87-.603-1.57-1.299-2.1-2.088-.5-.804-.83-1.671-.99-2.602-.15-.95-.13-1.918.07-2.902l4.36 1.168c-.14 1.001.02 1.835.49 2.501.47.667 1.22 1.138 2.25 1.414 1.13.303 2.11.198 2.94-.315.83-.513 1.4-1.335 1.7-2.465.34-1.251.24-2.282-.27-3.091-.5-.824-1.27-1.377-2.32-1.658-.7-.189-1.37-.229-2.01-.118-.63.091-1.22.355-1.77.792l-4.06-1.087 4.09-11.494 13.08 3.504-.98 3.663-9.69-2.596-1.5 4.27.6.162c.52-.229 1.1-.387 1.75-.472.66-.106 1.49-.023 2.5.247Z" fill="#fff"/><circle cx="1746.36" cy="519.356" r="30.0329" transform="rotate(15 1746.36 519.356)" fill="#000" fill-opacity=".65" stroke="#000" stroke-width="2.61156"/><path d="m1728.25 522.984 4.79 1.282 3.49-13.047-.6-.162-4.96 1.657 1.16-4.329 4.97-1.687 4.96 1.33-4.66 17.406 4.36 1.168-1.02 3.783-13.5-3.617 1.01-3.784Zm27.74-3.599c.97.26 1.83.675 2.59 1.245.75.57 1.35 1.239 1.8 2.007.46.773.76 1.642.89 2.607.13.945.06 1.932-.21 2.961-.28 1.029-.72 1.949-1.32 2.76-.61.811-1.35 1.467-2.22 1.97-.85.507-1.81.833-2.89.977-1.05.13-2.17.035-3.36-.284-1.21-.325-2.28-.806-3.22-1.445-.92-.66-1.66-1.506-2.2-2.539-.52-1.047-.81-2.304-.88-3.77-.06-1.465.17-3.167.69-5.104.44-1.655 1.02-3.132 1.74-4.433.72-1.301 1.55-2.363 2.51-3.189.98-.819 2.08-1.368 3.3-1.647 1.24-.293 2.6-.242 4.08.152.96.26 1.81.649 2.54 1.168.75.504 1.37 1.093 1.86 1.765.49.672.84 1.402 1.04 2.191.22.774.28 1.568.17 2.383l-4.33-1.16c0-.629-.19-1.187-.56-1.675-.34-.502-.93-.867-1.78-1.094-1.21-.324-2.34-.118-3.38.62-1.01.723-1.83 2.019-2.44 3.889l.61.162c.21-.138.47-.273.79-.405.32-.151.69-.259 1.09-.323.41-.064.87-.082 1.38-.053.52.009 1.09.097 1.71.264Zm-3.84 10.586c1.03.276 1.95.187 2.76-.265.82-.473 1.39-1.315 1.72-2.526.32-1.21.23-2.208-.27-2.992-.48-.798-1.23-1.335-2.26-1.611-1.03-.276-1.96-.2-2.79.227-.8.432-1.37 1.254-1.7 2.464-.32 1.211-.24 2.229.26 3.053.49.824 1.25 1.374 2.28 1.65Z" fill="#fff"/><g filter="url(#d)"><rect x="815.58" y="229.399" width="161.917" height="78.3468" rx="39.1734" transform="rotate(15 815.58 229.399)" fill="#FFC400"/><rect x="816.503" y="230.998" width="159.305" height="75.7352" rx="37.8676" transform="rotate(15 816.503 230.998)" stroke="#000" stroke-width="2.61156"/></g><path d="m903.444 282.286-.965 3.603-5.664 2.732-.17.636c.776.251 1.467.62 2.072 1.107.63.471 1.127 1.037 1.491 1.697.364.66.585 1.411.662 2.254.103.828.021 1.736-.244 2.725-.297 1.11-.756 2.057-1.378 2.842-.616.765-1.351 1.369-2.204 1.811-.849.421-1.8.664-2.856.727-1.035.069-2.117-.048-3.247-.351s-2.126-.743-2.988-1.32c-.837-.592-1.51-1.269-2.019-2.033-.503-.784-.852-1.624-1.044-2.519-.168-.91-.144-1.844.07-2.804l3.541.949c-.191 1.117.026 2.084.651 2.9.625.816 1.502 1.376 2.632 1.679 1.312.351 2.446.277 3.402-.224s1.599-1.367 1.929-2.598c.324-1.211.221-2.277-.311-3.198-.532-.921-1.484-1.566-2.856-1.933-.767-.206-1.419-.316-1.956-.33l.827-3.087 5.634-2.741.162-.606-8.99-2.409.803-2.996 13.016 3.487Zm11.886 2.731c1.151.308 2.153.804 3.008 1.487.876.689 1.545 1.582 2.008 2.68.488 1.082.748 2.374.778 3.874.051 1.507-.18 3.218-.694 5.135-.514 1.917-1.169 3.515-1.966 4.794-.771 1.264-1.642 2.253-2.612 2.967-.944.698-1.967 1.127-3.07 1.286-1.082.164-2.198.092-3.348-.216-1.151-.308-2.164-.807-3.039-1.495-.855-.684-1.527-1.567-2.015-2.649-.484-1.103-.743-2.395-.779-3.875-.03-1.501.211-3.21.725-5.127.514-1.917 1.159-3.518 1.935-4.802.777-1.284 1.648-2.273 2.612-2.966.97-.714 1.996-1.153 3.078-1.317 1.103-.159 2.229-.084 3.379.224Zm-5.053 18.859c.848.227 1.608.214 2.281-.038.699-.267 1.315-.707 1.847-1.322.552-.609 1.026-1.369 1.422-2.279.421-.926.775-1.923 1.061-2.993.292-1.089.485-2.13.577-3.122.113-.986.083-1.881-.091-2.685-.149-.818-.462-1.508-.939-2.068-.451-.575-1.101-.977-1.948-1.204-.848-.227-1.621-.207-2.32.06-.673.252-1.289.693-1.846 1.322-.533.615-1.007 1.374-1.422 2.28-.396.91-.739 1.91-1.031 3-.287 1.07-.49 2.108-.608 3.114-.092.992-.062 1.887.092 2.685.174.804.487 1.493.938 2.069.477.56 1.14.954 1.987 1.181Z" fill="#000"/><g filter="url(#e)"><path d="M847.605 294.47c1.626 6.068 9.211 8.101 13.654 3.658l17.991-17.991c4.443-4.443 2.41-12.028-3.658-13.654l-24.577-6.585c-6.069-1.626-11.621 3.927-9.995 9.995l6.585 24.577Z" fill="#65DA86"/><path d="m860.105 296.974 17.991-17.991c3.554-3.554 1.928-9.623-2.927-10.923l-24.577-6.586c-4.854-1.301-9.297 3.142-7.996 7.996l6.585 24.577c1.301 4.855 7.37 6.481 10.924 2.927Z" stroke="#000" stroke-width="3.26445"/></g><g filter="url(#f)"><mask id="g" fill="#fff"><path fill-rule="evenodd" clip-rule="evenodd" d="M1183.99 368.651c-2.01-3.485-.82-7.941 2.66-9.953l14.99-8.654v-7.622h13.21l2.38-1.38 6.6-11.431 6.61 3.81 14.98-8.651c3.48-2.012 7.94-.818 9.95 2.666l8.65 14.986h7.62v13.198l1.38 2.39 11.44 6.6-3.81 6.6 8.65 14.992c2.01 3.485.82 7.941-2.67 9.953l-14.99 8.654v7.614h-13.18l-2.41 1.39-6.59 11.418-6.6-3.806-14.99 8.658c-3.49 2.012-7.94.818-9.95-2.667l-8.66-14.993h-7.62v-13.192l-1.39-2.407-11.41-6.592 3.8-6.592-8.65-14.989Z"/></mask><path fill-rule="evenodd" clip-rule="evenodd" d="M1183.99 368.651c-2.01-3.485-.82-7.941 2.66-9.953l14.99-8.654v-7.622h13.21l2.38-1.38 6.6-11.431 6.61 3.81 14.98-8.651c3.48-2.012 7.94-.818 9.95 2.666l8.65 14.986h7.62v13.198l1.38 2.39 11.44 6.6-3.81 6.6 8.65 14.992c2.01 3.485.82 7.941-2.67 9.953l-14.99 8.654v7.614h-13.18l-2.41 1.39-6.59 11.418-6.6-3.806-14.99 8.658c-3.49 2.012-7.94.818-9.95-2.667l-8.66-14.993h-7.62v-13.192l-1.39-2.407-11.41-6.592 3.8-6.592-8.65-14.989Z" fill="#fff"/><path d="m1186.65 358.698-1.82-3.155 1.82 3.155Zm-2.66 9.953-3.16 1.821 3.16-1.821Zm17.65-18.607 1.82 3.155 1.83-1.052v-2.103h-3.65Zm0-7.622v-3.643H1198v3.643h3.64Zm13.21 0v3.643h.97l.85-.489-1.82-3.154Zm2.38-1.38 1.83 3.155.84-.488.49-.845-3.16-1.822Zm6.6-11.431 1.83-3.155-3.16-1.822-1.82 3.155 3.15 1.822Zm6.61 3.81-1.83 3.155 1.83 1.052 1.82-1.052-1.82-3.155Zm14.98-8.651-1.82-3.155 1.82 3.155Zm9.95 2.666 3.16-1.821-3.16 1.821Zm8.65 14.986-3.15 1.821 1.05 1.822h2.1v-3.643Zm7.62 0h3.65v-3.643h-3.65v3.643Zm0 13.198H1268v.976l.49.846 3.15-1.822Zm1.38 2.39-3.15 1.822.49.845.84.488 1.82-3.155Zm11.44 6.6 3.15 1.822 1.82-3.155-3.15-1.822-1.82 3.155Zm-3.81 6.6-3.16-1.821-1.05 1.821 1.05 1.822 3.16-1.822Zm8.65 14.992-3.15 1.822 3.15-1.822Zm-2.67 9.953-1.82-3.155 1.82 3.155Zm-14.99 8.654-1.82-3.155-1.82 1.052v2.103h3.64Zm0 7.614v3.643h3.65v-3.643h-3.65Zm-13.18 0v-3.643h-.98l-.85.489 1.83 3.154Zm-2.41 1.39-1.82-3.154-.85.488-.49.845 3.16 1.821Zm-6.59 11.418-1.83 3.155 3.16 1.821 1.82-3.154-3.15-1.822Zm-6.6-3.806 1.83-3.155-1.83-1.051-1.82 1.051 1.82 3.155Zm-14.99 8.658 1.82 3.155-1.82-3.155Zm-9.95-2.667-3.16 1.822 3.16-1.822Zm-8.66-14.993 3.15-1.821-1.05-1.822h-2.1v3.643Zm-7.62 0H1198v3.643h3.64v-3.643Zm0-13.192h3.65v-.976l-.49-.846-3.16 1.822Zm-1.39-2.407 3.16-1.822-.49-.845-.85-.488-1.82 3.155Zm-11.41-6.592-3.16-1.822-1.82 3.155 3.15 1.821 1.83-3.154Zm3.8-6.592 3.16 1.821 1.05-1.821-1.05-1.822-3.16 1.822Zm-7.81-28.097c-5.22 3.018-7.02 9.702-4 14.929l6.31-3.643c-1-1.742-.41-3.97 1.34-4.976l-3.65-6.31Zm14.99-8.654-14.99 8.654 3.65 6.31 14.98-8.654-3.64-6.31Zm-1.82-4.467v7.622h7.29v-7.622H1198Zm16.85-3.643h-13.21v7.286h13.21v-7.286Zm.56-.892-2.39 1.38 3.65 6.309 2.39-1.379-3.65-6.31Zm4.98 4.977 6.6-11.432-6.31-3.643-6.6 11.432 6.31 3.643Zm1.62-10.099 6.6 3.811 3.65-6.31-6.6-3.81-3.65 6.309Zm21.59-11.15-14.99 8.651 3.65 6.31 14.98-8.652-3.64-6.309Zm14.93 4c-3.02-5.227-9.7-7.018-14.93-4l3.64 6.309c1.74-1.006 3.97-.409 4.98 1.334l6.31-3.643Zm8.65 14.985-8.65-14.985-6.31 3.643 8.65 14.985 6.31-3.643Zm4.46-1.821h-7.62v7.286h7.62v-7.286Zm3.65 16.841v-13.198H1268v13.198h7.29Zm.89.569-1.38-2.39-6.31 3.643 1.38 2.39 6.31-3.643Zm-4.98 4.976 11.43 6.6 3.65-6.31-11.43-6.6-3.65 6.31Zm10.1 1.624-3.81 6.6 6.31 3.643 3.81-6.6-6.31-3.643Zm11.16 21.592-8.66-14.992-6.31 3.643 8.66 14.992 6.31-3.643Zm-4 14.928c5.22-3.017 7.01-9.701 4-14.928l-6.31 3.643c1 1.742.41 3.97-1.34 4.976l3.65 6.309Zm-14.99 8.655 14.99-8.655-3.65-6.309-14.99 8.654 3.65 6.31Zm1.82 4.459v-7.614H1268v7.614h7.29Zm-16.83 3.643h13.18v-7.286h-13.18v7.286Zm-.59.902 2.41-1.39-3.65-6.309-2.4 1.39 3.64 6.309Zm-4.98-4.976-6.59 11.418 6.31 3.643 6.59-11.418-6.31-3.643Zm-1.61 10.084-6.59-3.806-3.65 6.31 6.59 3.806 3.65-6.31Zm-21.59 11.162 15-8.658-3.65-6.31-14.99 8.658 3.64 6.31Zm-14.93-4c3.02 5.227 9.7 7.018 14.93 4l-3.64-6.31c-1.75 1.006-3.97.409-4.98-1.333l-6.31 3.643Zm-8.66-14.993 8.66 14.993 6.31-3.643-8.66-14.993-6.31 3.643Zm-4.46 1.821h7.62v-7.286h-7.62v7.286Zm-3.64-16.835v13.192h7.29v-13.192H1198Zm-.9-.586 1.39 2.407 6.31-3.643-1.39-2.407-6.31 3.643Zm4.97-4.976-11.41-6.592-3.65 6.309 11.42 6.592 3.64-6.309Zm-10.08-1.616 3.81-6.592-6.31-3.643-3.81 6.592 6.31 3.643Zm-11.16-21.581 8.66 14.989 6.31-3.643-8.66-14.989-6.31 3.643Z" fill="#000" mask="url(#g)"/></g><path d="m1263.09 392.029.1-.358v-.011c.15-.558.26-.99.32-1.33.05-.341.05-.625-.07-.865-.13-.24-.33-.435-.57-.557-.24-.121-.52-.121-.86-.064-.34.056-.77.176-1.33.33l-.01.003-28.41 7.884c-.43.121-.6.166-.77.149-.09-.01-.19-.035-.28-.075-.15-.067-.27-.192-.59-.514l-20.66-21.032-.01-.008c-.4-.412-.72-.731-.98-.949-.27-.22-.51-.361-.78-.377-.27-.016-.54.055-.77.201-.22.147-.37.39-.49.713-.13.321-.24.753-.39 1.31v.012l-.1.358c0 .012-.01.025-.01.037-.1.375-.17.611-.14.845.01.132.05.261.1.382.09.215.26.39.54.667.01.009.02.018.02.027l22.2 22.593.03.028c.28.285.45.465.67.563.13.056.26.091.39.105.24.025.49-.042.87-.15l.04-.01 30.52-8.469.03-.01c.38-.104.61-.17.8-.309.11-.078.2-.173.28-.28.14-.191.2-.427.3-.802l.01-.037Z" fill="#000" stroke="#000" stroke-width=".364286"/><path d="m1260.26 402.585.1-.358v-.011c.15-.557.27-.99.32-1.33.05-.341.05-.624-.07-.864-.13-.241-.32-.436-.57-.557-.24-.121-.52-.122-.86-.065-.34.056-.77.176-1.33.33l-.01.004-28.4 7.883c-.44.121-.61.166-.77.149-.1-.01-.2-.035-.28-.075-.15-.067-.28-.191-.6-.514l-20.66-21.031-.01-.009c-.4-.411-.71-.731-.98-.949-.27-.22-.51-.361-.78-.377-.27-.015-.54.055-.77.202-.22.146-.37.39-.49.712-.13.321-.24.753-.39 1.311v.011l-.1.358c0 .013-.01.025-.01.037-.1.376-.16.612-.14.845.01.132.05.261.1.383.09.215.27.389.54.666l.03.027 22.19 22.593.03.028c.28.286.45.465.67.564.13.055.26.091.4.105.24.024.48-.043.86-.15l.04-.011 30.52-8.469.03-.01c.38-.104.61-.169.8-.308.11-.079.2-.174.28-.281.14-.19.2-.426.3-.802l.01-.037Z" fill="#000" stroke="#000" stroke-width=".364286"/><path d="m1243.35 362.337 2.34-13.7v-.011c.25-1.446.44-2.544.53-3.305.05-.379.08-.691.08-.927-.01-.118-.01-.232-.04-.333-.02-.091-.06-.229-.18-.33-.21-.178-.49-.252-.76-.203-.15.029-.26.125-.32.194-.07.076-.14.17-.2.271-.12.203-.25.487-.4.84-.3.707-.68 1.751-1.19 3.127l-.01.011-4.82 13.034c-.09.236-.14.386-.2.491-.05.103-.07.112-.06.108-.03.018-.07.028-.1.027 0 0-.02.004-.12-.06-.09-.065-.22-.166-.41-.327l-10.69-8.877-.01-.007c-1.13-.937-1.99-1.648-2.6-2.112-.31-.231-.56-.41-.77-.526-.1-.058-.2-.107-.3-.138-.09-.027-.23-.057-.38-.005-.26.092-.46.295-.55.553-.06.147-.03.289 0 .379.03.099.08.202.14.304.11.206.29.463.53.768.46.611 1.17 1.468 2.11 2.596v.009l8.88 10.695c.16.193.26.316.33.414.06.095.06.12.06.113 0 .035-.01.069-.03.099 0 .005-.02.028-.11.069-.1.052-.25.108-.49.195l-13.03 4.823-.01.004c-1.38.509-2.42.895-3.13 1.193-.35.149-.64.281-.84.401-.1.06-.2.124-.27.195-.07.064-.17.172-.19.326-.05.269.02.546.2.755.1.119.24.164.33.185.1.023.21.032.33.033.24.003.55-.025.93-.072.76-.096 1.86-.284 3.3-.531l.01-.002 13.7-2.34c.25-.042.41-.069.53-.076.09-.006.12.003.12.005.04.017.06.042.08.073-.01-.007.01.013 0 .127-.01.117-.03.275-.07.523l-2.34 13.7-.01.012c-.24 1.445-.43 2.543-.53 3.304-.04.38-.07.691-.07.927 0 .118.01.232.03.333.03.092.07.229.19.33.21.178.49.252.75.203.16-.028.27-.125.33-.194.07-.076.14-.17.19-.271.13-.203.26-.487.41-.84.29-.707.68-1.751 1.19-3.127v-.011l4.83-13.034c.08-.236.14-.386.19-.491.05-.103.08-.112.07-.108.03-.018.06-.028.1-.027-.01 0 .02-.004.11.06.1.065.22.167.42.327l10.69 8.877.01.007c1.13.937 1.99 1.648 2.6 2.112.3.231.56.41.76.526.11.058.21.108.31.138.09.028.23.057.38.005.26-.092.46-.295.55-.553.05-.147.02-.289 0-.379-.04-.099-.09-.202-.14-.304-.12-.206-.3-.463-.53-.768-.46-.611-1.17-1.467-2.11-2.596l-.01-.009-8.87-10.694c-.17-.194-.27-.317-.33-.415-.05-.076-.06-.107-.06-.113 0-.035.01-.069.02-.099.01-.005.03-.028.11-.069.11-.052.26-.107.49-.195l13.04-4.823.01-.004c1.37-.509 2.42-.895 3.13-1.193.35-.148.63-.281.84-.401.1-.06.19-.124.27-.195.07-.064.16-.172.19-.326.05-.269-.02-.546-.2-.755-.1-.118-.24-.164-.33-.185-.1-.023-.22-.032-.33-.033-.24-.003-.55.025-.93.072-.76.096-1.86.284-3.31.531l-.01.002-13.7 2.34c-.25.042-.4.069-.52.076-.12.008-.13-.008-.13-.005-.03-.016-.05-.042-.07-.072 0 .006-.01-.014-.01-.128.01-.117.04-.275.08-.523Z" fill="#000" stroke="#000" stroke-width=".728571"/><defs><filter id="a" x=".19067" y="22.4655" width="910.87" height="310.708" filterUnits="userSpaceOnUse" color-interpolation-filters="sRGB"><feFlood flood-opacity="0" result="BackgroundImageFix"/><feColorMatrix in="SourceAlpha" values="0 0 0 0 0 0 0 0 0 0 0 0 0 0 0 0 0 0 127 0" result="hardAlpha"/><feOffset dy="7.83468"/><feGaussianBlur stdDeviation="11.752"/><feComposite in2="hardAlpha" operator="out"/><feColorMatrix values="0 0 0 0 1 0 0 0 0 0.772549 0 0 0 0 0.0392157 0 0 0 0.1 0"/><feBlend in2="BackgroundImageFix" result="effect1_dropShadow_107_326"/><feColorMatrix in="SourceAlpha" values="0 0 0 0 0 0 0 0 0 0 0 0 0 0 0 0 0 0 127 0" result="hardAlpha"/><feOffset dy="10.4462"/><feGaussianBlur stdDeviation="5.22312"/><feColorMatrix values="0 0 0 0 0 0 0 0 0 0 0 0 0 0 0 0 0 0 0.2 0"/><feBlend in2="effect1_dropShadow_107_326" result="effect2_dropShadow_107_326"/><feColorMatrix in="SourceAlpha" values="0 0 0 0 0 0 0 0 0 0 0 0 0 0 0 0 0 0 127 0" result="hardAlpha"/><feOffset dy="2.61156"/><feGaussianBlur stdDeviation="1.30578"/><feColorMatrix values="0 0 0 0 0 0 0 0 0 0 0 0 0 0 0 0 0 0 0.6 0"/><feBlend in2="effect2_dropShadow_107_326" result="effect3_dropShadow_107_326"/><feBlend in="SourceGraphic" in2="effect3_dropShadow_107_326" result="shape"/><feColorMatrix in="SourceAlpha" values="0 0 0 0 0 0 0 0 0 0 0 0 0 0 0 0 0 0 127 0" result="hardAlpha"/><feOffset dy="2.61156"/><feGaussianBlur stdDeviation="20.8925"/><feComposite in2="hardAlpha" operator="arithmetic" k2="-1" k3="1"/><feColorMatrix values="0 0 0 0 1 0 0 0 0 0.883501 0 0 0 0 0.508333 0 0 0 1 0"/><feBlend in2="shape" result="effect4_innerShadow_107_326"/></filter><filter id="b" x="332.289" y="112.474" width="83.5855" height="91.4201" filterUnits="userSpaceOnUse" color-interpolation-filters="sRGB"><feFlood flood-opacity="0" result="BackgroundImageFix"/><feGaussianBlur in="BackgroundImage" stdDeviation="3.91734"/><feComposite in2="SourceAlpha" operator="in" result="effect1_backgroundBlur_107_326"/><feColorMatrix in="SourceAlpha" values="0 0 0 0 0 0 0 0 0 0 0 0 0 0 0 0 0 0 127 0" result="hardAlpha"/><feOffset dy="10.4462"/><feGaussianBlur stdDeviation="5.22312"/><feColorMatrix values="0 0 0 0 0 0 0 0 0 0 0 0 0 0 0 0 0 0 0.2 0"/><feBlend in2="effect1_backgroundBlur_107_326" result="effect2_dropShadow_107_326"/><feColorMatrix in="SourceAlpha" values="0 0 0 0 0 0 0 0 0 0 0 0 0 0 0 0 0 0 127 0" result="hardAlpha"/><feOffset dy="2.61156"/><feGaussianBlur stdDeviation="1.30578"/><feColorMatrix values="0 0 0 0 0 0 0 0 0 0 0 0 0 0 0 0 0 0 0.6 0"/><feBlend in2="effect2_dropShadow_107_326" result="effect3_dropShadow_107_326"/><feBlend in="SourceGraphic" in2="effect3_dropShadow_107_326" result="shape"/></filter><filter id="c" x="675.359" y="204.399" width="83.5854" height="91.4201" filterUnits="userSpaceOnUse" color-interpolation-filters="sRGB"><feFlood flood-opacity="0" result="BackgroundImageFix"/><feGaussianBlur in="BackgroundImage" stdDeviation="3.91734"/><feComposite in2="SourceAlpha" operator="in" result="effect1_backgroundBlur_107_326"/><feColorMatrix in="SourceAlpha" values="0 0 0 0 0 0 0 0 0 0 0 0 0 0 0 0 0 0 127 0" result="hardAlpha"/><feOffset dy="10.4462"/><feGaussianBlur stdDeviation="5.22312"/><feColorMatrix values="0 0 0 0 0 0 0 0 0 0 0 0 0 0 0 0 0 0 0.2 0"/><feBlend in2="effect1_backgroundBlur_107_326" result="effect2_dropShadow_107_326"/><feColorMatrix in="SourceAlpha" values="0 0 0 0 0 0 0 0 0 0 0 0 0 0 0 0 0 0 127 0" result="hardAlpha"/><feOffset dy="2.61156"/><feGaussianBlur stdDeviation="1.30578"/><feColorMatrix values="0 0 0 0 0 0 0 0 0 0 0 0 0 0 0 0 0 0 0.6 0"/><feBlend in2="effect2_dropShadow_107_326" result="effect3_dropShadow_107_326"/><feBlend in="SourceGraphic" in2="effect3_dropShadow_107_326" result="shape"/></filter><filter id="d" x="751.866" y="199.02" width="263.551" height="204.458" filterUnits="userSpaceOnUse" color-interpolation-filters="sRGB"><feFlood flood-opacity="0" result="BackgroundImageFix"/><feColorMatrix in="SourceAlpha" values="0 0 0 0 0 0 0 0 0 0 0 0 0 0 0 0 0 0 127 0" result="hardAlpha"/><feOffset dy="13.0578"/><feGaussianBlur stdDeviation="26.1156"/><feColorMatrix values="0 0 0 0 1 0 0 0 0 0.831373 0 0 0 0 0 0 0 0 0.15 0"/><feBlend in2="BackgroundImageFix" result="effect1_dropShadow_107_326"/><feColorMatrix in="SourceAlpha" values="0 0 0 0 0 0 0 0 0 0 0 0 0 0 0 0 0 0 127 0" result="hardAlpha"/><feOffset dy="10.4462"/><feGaussianBlur stdDeviation="5.22312"/><feComposite in2="hardAlpha" operator="out"/><feColorMatrix values="0 0 0 0 0.266667 0 0 0 0 0.203922 0 0 0 0 0 0 0 0 0.2 0"/><feBlend in2="effect1_dropShadow_107_326" result="effect2_dropShadow_107_326"/><feColorMatrix in="SourceAlpha" values="0 0 0 0 0 0 0 0 0 0 0 0 0 0 0 0 0 0 127 0" result="hardAlpha"/><feOffset dy="2.61156"/><feGaussianBlur stdDeviation="1.30578"/><feColorMatrix values="0 0 0 0 0.25 0 0 0 0 0.15 0 0 0 0 0 0 0 0 0.6 0"/><feBlend in2="effect2_dropShadow_107_326" result="effect3_dropShadow_107_326"/><feBlend in="SourceGraphic" in2="effect3_dropShadow_107_326" result="shape"/><feColorMatrix in="SourceAlpha" values="0 0 0 0 0 0 0 0 0 0 0 0 0 0 0 0 0 0 127 0" result="hardAlpha"/><feOffset/><feGaussianBlur stdDeviation="15.6694"/><feComposite in2="hardAlpha" operator="arithmetic" k2="-1" k3="1"/><feColorMatrix values="0 0 0 0 1 0 0 0 0 0.918667 0 0 0 0 0.491667 0 0 0 1 0"/><feBlend in2="shape" result="effect4_innerShadow_107_326"/></filter><filter id="e" x="827.675" y="249.817" width="67.0284" height="76.8218" filterUnits="userSpaceOnUse" color-interpolation-filters="sRGB"><feFlood flood-opacity="0" result="BackgroundImageFix"/><feGaussianBlur in="BackgroundImage" stdDeviation="4.89667"/><feComposite in2="SourceAlpha" operator="in" result="effect1_backgroundBlur_107_326"/><feColorMatrix in="SourceAlpha" values="0 0 0 0 0 0 0 0 0 0 0 0 0 0 0 0 0 0 127 0" result="hardAlpha"/><feOffset dy="13.0578"/><feGaussianBlur stdDeviation="6.5289"/><feColorMatrix values="0 0 0 0 0 0 0 0 0 0 0 0 0 0 0 0 0 0 0.2 0"/><feBlend in2="effect1_backgroundBlur_107_326" result="effect2_dropShadow_107_326"/><feColorMatrix in="SourceAlpha" values="0 0 0 0 0 0 0 0 0 0 0 0 0 0 0 0 0 0 127 0" result="hardAlpha"/><feOffset dy="3.26445"/><feGaussianBlur stdDeviation="1.63222"/><feColorMatrix values="0 0 0 0 0 0 0 0 0 0 0 0 0 0 0 0 0 0 0.6 0"/><feBlend in2="effect2_dropShadow_107_326" result="effect3_dropShadow_107_326"/><feBlend in="SourceGraphic" in2="effect3_dropShadow_107_326" result="shape"/></filter><filter id="f" x="1168.44" y="312.864" width="136.411" height="147.34" filterUnits="userSpaceOnUse" color-interpolation-filters="sRGB"><feFlood flood-opacity="0" result="BackgroundImageFix"/><feGaussianBlur in="BackgroundImage" stdDeviation="5.46429"/><feComposite in2="SourceAlpha" operator="in" result="effect1_backgroundBlur_107_326"/><feColorMatrix in="SourceAlpha" values="0 0 0 0 0 0 0 0 0 0 0 0 0 0 0 0 0 0 127 0" result="hardAlpha"/><feOffset dy="14.5714"/><feGaussianBlur stdDeviation="7.28571"/><feColorMatrix values="0 0 0 0 0 0 0 0 0 0 0 0 0 0 0 0 0 0 0.2 0"/><feBlend in2="effect1_backgroundBlur_107_326" result="effect2_dropShadow_107_326"/><feColorMatrix in="SourceAlpha" values="0 0 0 0 0 0 0 0 0 0 0 0 0 0 0 0 0 0 127 0" result="hardAlpha"/><feOffset dy="3.64286"/><feGaussianBlur stdDeviation="1.82143"/><feColorMatrix values="0 0 0 0 0 0 0 0 0 0 0 0 0 0 0 0 0 0 0.6 0"/><feBlend in2="effect2_dropShadow_107_326" result="effect3_dropShadow_107_326"/><feBlend in="SourceGraphic" in2="effect3_dropShadow_107_326" result="shape"/></filter></defs></svg>