<svg width="400" height="282" viewBox="0 0 400 282" fill="none" xmlns="http://www.w3.org/2000/svg">
<path d="M33.2288 136.657C39.0393 136.657 43.6877 135.169 47.174 132.192C50.7329 129.142 52.9845 125.439 53.9287 121.083L56.1076 121.519C55.0908 127.472 52.694 132.555 48.9171 136.766C45.2129 140.977 39.0756 143.083 30.5051 143.083C20.7725 143.083 13.2552 139.924 7.95312 133.608C2.65104 127.218 0 118.324 0 106.925C0 99.9549 1.23473 93.8198 3.70419 88.5196C6.24629 83.2194 9.7689 79.1172 14.272 76.213C18.8478 73.3087 24.2225 71.8566 30.3962 71.8566C39.4751 71.8566 45.9393 74.4341 49.7887 79.5891C53.6382 84.7441 55.5629 91.2786 55.5629 99.1926V101.371L44.5593 100.173C45.4308 97.0507 45.8666 94.0376 45.8666 91.1334C45.8666 86.414 44.5229 82.7838 41.8356 80.2426C39.2209 77.6288 35.6619 76.3219 31.1588 76.3219C24.5494 76.3219 19.1746 78.8268 15.0347 83.8365C10.9673 88.7737 8.93364 96.4699 8.93364 106.925C8.93364 113.242 9.91416 118.651 11.8752 123.152C13.9089 127.581 16.7415 130.957 20.3731 133.281C24.0773 135.532 28.3625 136.657 33.2288 136.657Z" fill="white"/>
<path d="M98.7654 142.32V140.251C101.017 140.251 102.688 140.178 103.777 140.033C104.866 139.815 105.52 139.38 105.738 138.726C105.956 138.073 105.52 137.093 104.431 135.786L74.5792 98.1035V90.0443H77.085C77.085 93.6746 78.2471 96.5425 80.5713 98.648C82.9681 100.754 85.8734 101.806 89.287 101.806C93.3544 101.806 96.4412 100.681 98.5475 98.4302C100.726 96.1794 101.816 93.3841 101.816 90.0443C101.816 86.1236 100.726 83.1468 98.5475 81.1138C96.4412 79.0083 92.8097 77.9555 87.6528 77.9555H75.9955V72.9457H90.2676C96.7317 72.9457 101.78 74.3978 105.411 77.302C109.043 80.1337 110.859 84.127 110.859 89.2819C110.859 94.3643 109.079 98.3576 105.52 101.262C101.961 104.166 97.3128 105.618 91.5749 105.618C89.3234 105.618 87.326 105.291 85.5828 104.638L85.365 105.074C87.907 106.598 90.4128 108.45 92.8823 110.628C95.4244 112.806 97.7486 115.129 99.8549 117.598L119.138 140.687V142.32H98.7654ZM61.5056 142.32V140.251C63.6119 140.251 65.2824 139.815 66.5172 138.944C67.7519 138.073 68.3692 136.439 68.3692 134.043V81.1138C68.3692 78.7905 67.7519 77.1931 66.5172 76.3219C65.2824 75.378 63.6119 74.9061 61.5056 74.9061V72.9457H77.085V134.043C77.085 136.439 77.7024 138.073 78.9371 138.944C80.1718 139.815 81.8423 140.251 83.9486 140.251V142.32H61.5056Z" fill="white"/>
<path d="M124.441 80.3515C123.424 78.2459 121.972 76.8301 120.083 76.1041C118.195 75.3054 116.125 74.9061 113.873 74.9061V72.9457H129.997L149.063 112.044H144.814L162.137 80.1337C163.008 78.6815 163.226 77.5925 162.79 76.8664C162.427 76.1404 161.628 75.6321 160.394 75.3417C159.159 75.0513 157.452 74.9061 155.273 74.9061V72.9457H179.568V74.9061C177.244 74.9061 175.138 75.2691 173.249 75.9952C171.361 76.7212 169.836 78.1007 168.674 80.1337L150.153 113.786V134.043C150.153 136.439 150.806 138.073 152.114 138.944C153.494 139.815 155.382 140.251 157.779 140.251V142.32H133.702V140.251C136.098 140.251 137.987 139.815 139.367 138.944C140.747 138.073 141.437 136.439 141.437 134.043V114.331L124.441 80.3515Z" fill="white"/>
<path d="M211.575 104.093C216.949 105.981 220.835 108.413 223.232 111.39C225.702 114.294 226.936 118.179 226.936 123.043C226.936 130.014 224.721 135.096 220.291 138.291C215.86 141.485 209.904 143.083 202.423 143.083C196.322 143.083 191.129 142.03 186.844 139.924C182.631 137.819 179.399 135.169 177.148 131.974V110.519H178.891C179.036 116.11 180.125 121.01 182.159 125.222C184.265 129.433 187.098 132.7 190.657 135.023C194.216 137.347 198.32 138.508 202.968 138.508C207.907 138.508 211.72 137.31 214.407 134.914C217.095 132.518 218.438 129.36 218.438 125.439C218.438 122.317 217.603 119.704 215.933 117.598C214.335 115.42 211.647 113.677 207.871 112.37L192.509 106.925C187.861 105.255 184.447 103.113 182.268 100.499C180.089 97.8857 179 94.4006 179 90.0443C179 86.7771 179.835 83.8002 181.505 81.1138C183.249 78.3548 185.9 76.1404 189.459 74.4704C193.09 72.7279 197.521 71.8566 202.75 71.8566C206.963 71.8566 210.885 72.4738 214.516 73.7081C218.221 74.9424 221.38 76.7575 223.995 79.1535L224.866 97.8857H223.232C222.215 90.5525 220 85.1071 216.586 81.5495C213.173 77.9918 208.597 76.213 202.859 76.213C197.702 76.213 193.816 77.3383 191.202 79.5891C188.587 81.8399 187.28 84.7441 187.28 88.3018C187.28 90.5525 187.933 92.5129 189.241 94.1828C190.548 95.8527 192.691 97.2322 195.669 98.3213L211.575 104.093Z" fill="white"/>
<path d="M263.309 134.043C263.309 136.439 263.963 138.073 265.27 138.944C266.65 139.815 268.539 140.251 270.935 140.251V142.32H246.967V140.251C249.364 140.251 251.216 139.815 252.523 138.944C253.903 138.073 254.593 136.439 254.593 134.043V72.9457H263.309V134.043ZM230.516 71.8566C231.46 72.2923 232.514 72.5827 233.676 72.7279C234.91 72.8731 236.508 72.9457 238.469 72.9457H279.433C281.394 72.9457 282.956 72.8731 284.118 72.7279C285.353 72.5827 286.442 72.2923 287.386 71.8566L287.822 76.4308L289.021 87.8661L286.951 88.0839C286.66 84.9619 285.97 82.4933 284.881 80.6782C283.864 78.8631 282.157 77.9555 279.76 77.9555H238.142C235.746 77.9555 234.002 78.8631 232.913 80.6782C231.896 82.4207 231.206 84.853 230.843 87.975L228.882 87.7572L230.08 76.4308L230.516 71.8566Z" fill="white"/>
<path d="M298.727 134.37C298.073 136.693 298.4 138.254 299.708 139.053C301.088 139.852 303.303 140.251 306.353 140.251V142.32H283.366V140.251C285.617 140.251 287.542 139.852 289.14 139.053C290.81 138.182 291.972 136.621 292.626 134.37L308.314 80.7871C308.968 78.5363 308.496 77.0116 306.898 76.213C305.3 75.3417 302.758 74.9061 299.272 74.9061V72.9457H321.824L339.8 134.37C340.454 136.621 341.58 138.182 343.177 139.053C344.848 139.852 346.773 140.251 348.952 140.251V142.32H323.349V140.251C326.472 140.251 328.688 139.852 329.995 139.053C331.375 138.254 331.738 136.693 331.084 134.37L313.653 74.4704H316.268L298.727 134.37ZM332.936 116.291V121.301H300.143V116.291H332.936Z" fill="white"/>
<path d="M389.432 137.201C391.756 137.201 393.572 136.33 394.88 134.588C396.259 132.845 397.313 130.485 398.039 127.509L400 127.944L397.276 138.726L396.296 142.32H366.553V137.201H389.432ZM352.172 142.32V140.251C354.279 140.251 355.949 139.815 357.184 138.944C358.419 138.073 359.036 136.439 359.036 134.043V81.1138C359.036 78.7905 358.419 77.1931 357.184 76.3219C355.949 75.378 354.279 74.9061 352.172 74.9061V72.9457H374.615V74.9061C372.509 74.9061 370.839 75.378 369.604 76.3219C368.369 77.1931 367.752 78.7905 367.752 81.1138V142.32H352.172Z" fill="white"/>
<path d="M99.9274 29.6182C103.887 29.6182 107.989 20.5702 107.989 15.0565C107.989 12.6531 107.176 10.9566 105.231 10.9566C101.625 10.9566 98.0889 18.6616 97.8768 18.6616C97.7707 18.6616 97.7707 18.5202 97.8768 18.0608L101.271 1.90857C101.589 0.424128 100.67 0 99.5739 0C97.6646 0 96.0736 0.8836 95.9675 1.59048C95.7907 2.68614 98.9021 1.90857 98.4778 3.64043C98.1243 5.08953 94.3411 5.61969 86.8102 5.61969C83.5574 5.61969 80.3046 5.58434 79.2792 5.37228C78.7489 5.26625 78.5367 4.9835 78.1832 4.52403C77.8296 4.41799 77.4053 4.52403 77.1578 4.6654C76.8396 6.4326 76.6275 8.90668 76.38 10.992C76.8043 11.098 77.2639 11.098 77.7589 10.992L78.1478 9.93165C79.0317 7.52826 80.0217 7.38689 81.1885 7.28086C82.2845 7.17482 83.6281 7.24551 84.1938 7.3162C85.1838 7.42223 85.3959 7.8817 85.1484 9.89631C84.9009 11.8756 83.5927 21.3477 83.1684 24.3166C82.9563 25.9071 82.7088 26.5787 82.0017 26.8967C81.4713 27.1442 79.7035 27.6743 79.3499 27.7803C79.0317 28.0631 79.0671 28.7346 79.3499 28.982C82.1431 28.9114 86.598 28.9114 90.0276 28.982C90.3458 28.7346 90.4165 28.0631 90.2751 27.7803C90.0276 27.7097 87.9769 27.1088 87.4819 26.8261C86.8102 26.4373 86.7041 25.9425 86.7748 24.3166C86.8809 21.2771 88.2244 11.0627 88.6133 9.01271C88.8962 7.52826 89.0023 7.45757 90.558 7.42223C94.624 7.3162 96.6393 7.13948 98.0889 6.36191C97.1696 10.2144 96.1089 13.5014 95.0129 18.9444C94.624 20.8176 93.6693 25.0942 93.6693 27.7803C93.6693 28.982 94.1997 29.3355 94.7654 29.3355C95.72 29.3355 96.0029 28.4872 96.8161 25.7304C98.301 20.6762 101.766 13.3954 103.993 13.3954C104.983 13.3954 105.408 14.491 105.408 16.0462C105.408 19.0504 103.958 23.7865 102.12 24.9528C99.7506 26.4726 98.2657 26.8261 98.2657 28.0631C98.2657 28.6639 98.69 29.6182 99.9274 29.6182Z" fill="white"/>
<path d="M114.268 29.3355C117.557 29.3355 120.067 25.7657 120.067 24.6347C120.067 24.458 119.996 24.352 119.819 24.352C119.042 24.352 116.955 26.5433 115.046 26.5433C113.632 26.5433 112.996 25.377 112.996 22.8675C112.996 22.3727 113.031 21.8779 113.066 21.3831C118.334 20.1814 121.41 17.3892 121.41 13.8195C121.41 12.0169 120.35 11.0273 118.476 11.0273C114.233 11.0273 110.202 17.1772 110.202 23.7158C110.202 27.2502 111.723 29.3355 114.268 29.3355ZM113.278 20.1461C113.986 16.2229 116.107 12.5824 118.016 12.5824C118.547 12.5824 118.865 13.0419 118.865 13.8548C118.865 16.3289 116.39 19.0857 113.278 20.1461Z" fill="white"/>
<path d="M274.546 282C275.394 282 280.026 281.823 282.607 279.809L283.491 274.366C283.738 272.74 283.986 272.422 284.516 272.139C285.117 271.821 286.178 271.644 286.567 271.538C286.708 271.255 286.779 270.619 286.567 270.372C283.986 270.513 279.991 270.478 276.667 270.372C276.455 270.619 276.42 271.291 276.561 271.574C276.703 271.609 278.895 271.927 279.39 272.104C280.238 272.422 280.45 272.881 280.344 274.366C280.274 275.391 279.955 277.653 279.637 278.819C278.117 280.056 276.314 280.339 274.793 280.339C269.737 280.339 266.06 276.734 266.272 270.16C266.52 263.586 270.48 259.274 275.854 259.274C278.859 259.274 281.794 260.688 282.961 264.187C283.597 264.222 283.986 264.222 284.198 264.081C284.446 262.561 284.552 260.864 284.587 259.627C282.254 258.39 278.895 257.789 276.137 257.789C268.217 257.789 263.196 262.702 262.701 270.054C262.206 277.37 267.015 282 274.546 282Z" fill="white"/>
<path d="M290.881 282C293.391 282 295.866 278.289 296.396 277.299H296.431C296.325 280.763 296.962 282 298.27 282C300.109 282 301.947 278.678 301.947 278.041C301.947 277.794 301.841 277.723 301.664 277.723C301.205 277.723 300.073 278.324 299.543 278.324C299.154 278.324 299.048 278.006 299.048 277.441C299.048 274.825 301.063 267.403 302.053 264.187C302.053 263.904 301.77 263.727 301.346 263.727C300.851 263.727 300.179 263.939 299.472 264.575C298.73 264.187 297.952 263.975 297.174 263.975C291.977 263.975 288.547 272.846 288.547 278.324C288.547 281.293 289.714 282 290.881 282ZM292.33 279.031C291.588 279.031 291.34 278.112 291.34 276.91C291.34 272.599 294.239 265.706 296.573 265.706C297.209 265.706 298.023 266.378 298.518 267.262C297.987 269.276 297.315 272.104 296.82 274.33C295.442 277.264 293.355 279.031 292.33 279.031Z" fill="white"/>
<path d="M306.02 282C306.975 282 307.293 281.081 307.753 279.526C308.389 277.37 309.025 273.871 310.051 271.149C311.217 268.074 312.985 266.166 314.258 266.166C315.001 266.166 315.248 266.802 315.248 267.686C315.248 268.499 315.036 269.524 314.788 270.478C313.905 273.977 312.42 278.006 312.42 280.197C312.42 281.222 312.808 282 313.551 282C314.682 282 315.036 279.915 315.46 278.324C316.203 275.461 316.698 272.74 317.405 270.831C318.395 268.074 320.057 266.166 321.294 266.166C321.966 266.166 322.213 266.661 322.213 267.509C322.213 268.428 321.93 269.7 321.612 271.114C320.799 274.896 319.562 278.925 319.562 280.48C319.562 281.541 319.951 282 320.728 282C322.001 282 323.062 280.48 323.91 278.784C324.37 277.9 324.759 276.875 324.087 276.875C324.017 276.875 323.875 276.875 322.567 277.335C323.274 274.613 324.759 269.382 324.759 266.837C324.759 264.894 324.052 263.727 322.567 263.727C320.658 263.727 318.854 265.989 317.546 268.357C317.688 267.792 317.723 267.332 317.723 266.837C317.723 264.894 317.016 263.727 315.531 263.727C313.303 263.727 311.253 266.343 310.121 268.675L310.333 265.812C310.475 263.939 310.086 263.727 309.485 263.727C307.823 263.727 305.348 265.954 305.348 267.226C305.348 267.721 305.773 267.721 306.444 267.58L308.672 267.156C307.116 269.877 306.055 274.118 305.666 275.815C305.313 277.335 304.924 279.031 304.924 280.233C304.924 281.293 305.207 282 306.02 282Z" fill="white"/>
<path d="M331.597 282C334.885 282 337.395 278.43 337.395 277.299C337.395 277.123 337.324 277.017 337.148 277.017C336.37 277.017 334.284 279.208 332.374 279.208C330.96 279.208 330.324 278.041 330.324 275.532C330.324 275.037 330.359 274.542 330.394 274.048C335.663 272.846 338.739 270.054 338.739 266.484C338.739 264.681 337.678 263.692 335.804 263.692C331.561 263.692 327.531 269.842 327.531 276.38C327.531 279.915 329.051 282 331.597 282ZM330.607 272.811C331.314 268.887 333.435 265.247 335.344 265.247C335.875 265.247 336.193 265.706 336.193 266.519C336.193 268.993 333.718 271.75 330.607 272.811Z" fill="white"/>
<path d="M2.18299 187.32C2.18299 193.898 3.45199 199.818 5.98999 205.08C8.57499 210.342 12.194 214.476 16.941 217.483C21.688 220.443 27.281 221.947 33.626 221.947C48.055 222.088 59.6171 213.02 60.2751 200.006H51.627C50.593 208.181 44.107 214.101 34.143 214.101H33.156C19.15 214.288 10.737 202.214 10.878 187.32C10.737 172.426 19.15 160.352 33.156 160.54H34.143C44.107 160.54 50.593 166.459 51.627 174.682H60.2751C59.6171 161.667 48.055 152.505 33.626 152.693C27.281 152.693 21.688 154.197 16.941 157.204C12.194 160.164 8.57499 164.298 5.98999 169.56C3.45199 174.822 2.18299 180.742 2.18299 187.32Z" fill="white"/>
<path d="M115.763 221.007H124.834L98.0443 153.633H86.9993L60.0213 221.007H68.8573L75.8603 203.247H108.76L115.763 221.007ZM78.9623 195.401L92.3103 161.62L105.658 195.401H78.9623Z" fill="white"/>
<path d="M123.782 199.536C124.064 214.054 134.028 221.947 150.102 221.947C164.813 221.947 174.542 214.523 174.542 202.825C174.542 192.582 168.526 186.239 156.447 183.843L145.684 181.729C139.433 180.461 135.814 177.125 135.814 171.816C135.814 165.426 141.783 160.54 150.384 160.54H151.371C159.925 160.54 166.411 165.708 166.881 173.695H175.529C175.059 160.868 165.612 152.693 150.901 152.693C136.801 152.505 126.978 161.432 127.166 171.957C127.166 182.105 132.994 188.166 143.851 190.421L154.661 192.629C162.228 194.18 165.847 197.515 165.847 203.2C165.847 209.355 160.536 214.101 151.277 214.101H150.29C139.715 214.101 132.43 208.885 132.43 199.536H123.782Z" fill="white"/>
<path d="M198.916 221.007H207.564V161.526H231.816V153.633H174.664V161.526H198.916V221.007Z" fill="white"/>
<path d="M237.437 221.007H285.847V213.161H246.085V153.633H237.437V221.007Z" fill="white"/>
<path d="M291.562 221.007H340.959V213.161H300.21V190.28H334.191V182.434H300.21V161.526H339.972V153.633H291.562V221.007Z" fill="white"/>
<path d="M343.949 199.536C344.231 214.054 354.195 221.947 370.269 221.947C384.98 221.947 394.709 214.523 394.709 202.825C394.709 192.582 388.693 186.239 376.614 183.843L365.851 181.729C359.6 180.461 355.981 177.125 355.981 171.816C355.981 165.426 361.95 160.54 370.551 160.54H371.538C380.092 160.54 386.578 165.708 387.048 173.695H395.696C395.226 160.868 385.779 152.693 371.068 152.693C356.968 152.505 347.145 161.432 347.333 171.957C347.333 182.105 353.161 188.166 364.018 190.421L374.828 192.629C382.395 194.18 386.014 197.515 386.014 203.2C386.014 209.355 380.703 214.101 371.444 214.101H370.457C359.882 214.101 352.597 208.885 352.597 199.536H343.949Z" fill="white"/>
</svg>
